<mxfile host="65bd71144e">
    <diagram id="6qC5-RQaccc_7E89vRkb" name="data flow">
        <mxGraphModel dx="938" dy="478" grid="1" gridSize="10" guides="1" tooltips="1" connect="1" arrows="1" fold="1" page="1" pageScale="1" pageWidth="827" pageHeight="1169" math="0" shadow="0">
            <root>
                <mxCell id="0"/>
                <mxCell id="1" parent="0"/>
                <mxCell id="EBpi7y422gBd8kmgXdU--1" value="" style="rounded=1;whiteSpace=wrap;html=1;fontSize=12;arcSize=5;" parent="1" vertex="1">
                    <mxGeometry x="302" y="640" width="194" height="100" as="geometry"/>
                </mxCell>
                <mxCell id="EBpi7y422gBd8kmgXdU--2" value="Mac Address" style="html=1;strokeWidth=1;shadow=0;dashed=0;shape=mxgraph.ios7.misc.wifi;fillColor=#007AFF;strokeColor=none;buttonText=;strokeColor2=#222222;fontColor=#222222;fontSize=8;verticalLabelPosition=bottom;verticalAlign=top;align=center;sketch=0;" parent="1" vertex="1">
                    <mxGeometry x="437" y="926" width="60" height="60" as="geometry"/>
                </mxCell>
                <mxCell id="EBpi7y422gBd8kmgXdU--3" value="" style="endArrow=classic;startArrow=classic;html=1;fontSize=12;entryX=0.001;entryY=0.523;entryDx=0;entryDy=0;entryPerimeter=0;" parent="1" source="EBpi7y422gBd8kmgXdU--24" target="EBpi7y422gBd8kmgXdU--2" edge="1">
                    <mxGeometry width="50" height="50" relative="1" as="geometry">
                        <mxPoint x="368" y="938" as="sourcePoint"/>
                        <mxPoint x="418" y="888" as="targetPoint"/>
                    </mxGeometry>
                </mxCell>
                <mxCell id="EBpi7y422gBd8kmgXdU--4" value="txt" style="edgeLabel;html=1;align=center;verticalAlign=middle;resizable=0;points=[];fontSize=12;" parent="EBpi7y422gBd8kmgXdU--3" vertex="1" connectable="0">
                    <mxGeometry x="0.1978" y="1" relative="1" as="geometry">
                        <mxPoint x="-9" y="1" as="offset"/>
                    </mxGeometry>
                </mxCell>
                <mxCell id="EBpi7y422gBd8kmgXdU--5" value="" style="endArrow=classic;startArrow=classic;html=1;fontSize=12;entryX=0.983;entryY=0.533;entryDx=0;entryDy=0;entryPerimeter=0;" parent="1" source="EBpi7y422gBd8kmgXdU--26" target="EBpi7y422gBd8kmgXdU--2" edge="1">
                    <mxGeometry width="50" height="50" relative="1" as="geometry">
                        <mxPoint x="458" y="888" as="sourcePoint"/>
                        <mxPoint x="451.06" y="967.38" as="targetPoint"/>
                        <Array as="points">
                            <mxPoint x="550" y="827"/>
                            <mxPoint x="550" y="960"/>
                        </Array>
                    </mxGeometry>
                </mxCell>
                <mxCell id="EBpi7y422gBd8kmgXdU--6" value="txt" style="edgeLabel;html=1;align=center;verticalAlign=middle;resizable=0;points=[];fontSize=12;" parent="EBpi7y422gBd8kmgXdU--5" vertex="1" connectable="0">
                    <mxGeometry x="0.1129" relative="1" as="geometry">
                        <mxPoint y="-20" as="offset"/>
                    </mxGeometry>
                </mxCell>
                <mxCell id="EBpi7y422gBd8kmgXdU--7" value="Monitoring&lt;br&gt;&amp;amp; Control" style="points=[[0.35,0,0],[0.98,0.51,0],[1,0.71,0],[0.67,1,0],[0,0.795,0],[0,0.65,0]];verticalLabelPosition=bottom;sketch=0;html=1;verticalAlign=top;aspect=fixed;align=center;pointerEvents=1;shape=mxgraph.cisco19.user;fillColor=#005073;strokeColor=none;fontSize=12;" parent="1" vertex="1">
                    <mxGeometry x="174" y="915" width="50" height="50" as="geometry"/>
                </mxCell>
                <mxCell id="EBpi7y422gBd8kmgXdU--8" value="Ruang&#10;Simulasi" style="shape=image;verticalLabelPosition=bottom;labelBackgroundColor=default;verticalAlign=top;aspect=fixed;imageAspect=0;image=data:image/png,iVBORw0KGgoAAAANSUhEUgAAAQAAAAEACAYAAABccqhmAAAACXBIWXMAAAdhAAAHYQGVw7i2AAAAGXRFWHRTb2Z0d2FyZQB3d3cuaW5rc2NhcGUub3Jnm+48GgAAIABJREFUeJztnXl0ZFd957/3vdpLJVVpl3rvlntvvLRhsMdb2w5gzAAOtgNxDPYQepgwIZnJsDiZQJ+TnATOhBkOZDjEOZ4QGJMZb+AAMYMXGGxjbNxtd7vd7V7Um1ottdTaSiqp1vfmj6aKklol1XLvu/e+9/uc43Naqlf3/Vyq9333/n7f330AQRAEQRAEQRAEQRBegMkOgHCev+u3W4I+63dsht32nie3Y03bc/melj/evfuKo7JjI5yFBMBDfOt0dqdlGLuZjXsARAHA/tTDF1/0mbDXtp1lK+Jfv3/mnX/D9jBLYqiEQ5AAuJyHzti9hm3dC2Z/AsCGha+XBKAM1hIuYG3Hr6yO2Gc+/kdXv+BEnIQcSABcyCO2bc6cye9iBtvNbNxhA75Kxy4mACUYA1a3jmNl6z82xVq+cPents2IiJeQBwmAi3ho0N5kWPn7YbP7AHRV854lBaCccMDGuva3WE/ii/f/8dWP1h8loRIkAJrzyIAdTlmF9zGG3TZwC2r8m1YtAOXv6WmZZWvan/C3hz5777+7eqjmAQhlIAHQlFJCz8JHwBCrd5x6BKCE34S9hhKHOkMCoBEPn7YTOVh32Qx/ANiX8xizIQEog7U1Ze117c9a8fhnf/+PLj/IZVBCOCQAirPHto3VZ/I3M4Ptho0PAAjwHJ+XAJQwGLDqYuLwTFfPn+65f12a7wkInpAAKMrfn7VX+grWPWD2JwGsFXUe7gJQTixosfVdrxg9sT/92Keu/qm4ExH1QgKgEF87ZgdjgcL7603o1YNQASg/z68Th77W2J989N9fPuLISYllIQFQgG+dzmyzDeNeZrOP20C7k+d2SgCKsFDAtte3v2V2xv7qY3/yzv/l6MmJSyABkES5Hx+wd8qKw2kBmEdHLEN9CHIhAXCYxfz4MpEqAEWoD0EaJAAOsJwfXyZKCEAZ1IfgLCQAgqjFjy8T1QSgBPUhOAIJAGfq8ePLRFkBKIf6EIRBAsCBRv34MtFCAMqgPgS+aPNFVRFefnyZ6CYAJagPgQskADUiwo8vE20FoAzqQ6gfEoAqEO3Hl4kbBKAE9SHUDAnAEjjlx5eJqwSgHOpDqAoSgAXI8OPLxLUCUAb1IVTG1V/uWpDpx5eJFwSgCPUhXIqnBUAVP75MvCQA86A+BAAeFQDV/Pgy8awAFPF4H4JnBEBlP75MPC8AZXixD8HVAqCLH18mJACL4KE+BFcKgG5+fJmQACyDy/sQXCMAOvvxZUICUD1u7EPQ/iJxgx9fJiQAdeCiPgQtBcBtfnyZkAA0hu59CNoIgKp+/IA1jayh78SDBIATmvYhKC8Aqvvx+2Z+gC3Jf8Kp6Ltwouk9SJndskOqCRIAAWjUh6CkAOjkx4/nTuD2oXsBABZ8ONF0O/a3fAJpMyE5suogARCL6n0ISl1YOvrxmW3hwwO7YCBf+l3WiOH1+CdxrOmDEiOrDhIAZ1C1D0G6ALjBj//bgx9AuHDhkt+fir4LL7d+DnkWkhBVdagqAJZtIZPJIJvNIJfPoVAowLIvJtsNZsA0Tfh9AQQCAYSCITAm/atcPQr1IUj71Nzkx799+KOIZ/sXfW08sBHPdX4VGaPF4aiqQzUByBfySKVmMJeeg23bVb2HMYZQKIKmaBN8pik4Qo4o0IfgqAC41Y9/2/D9aM1WFvKxwBY82/l15Iywg1FVhyoCYNs2plPTSKVSAKq78C+BAdFwE2KxGJj8yW1NyOpDEP4pecGP//6hDyOWG1jymKHQO/Czzv8KS7H/fRUEIF8oYGJyHPl8jst4Ab8fiZZWGDrNBoo43IcgTAC848e3cffZd8FvzS575IGWT+CNlvvEh1QDsgUgn8thbHIMlsV39msYJloTrfD7/FzHdRQH+hC4CoAX/fiRwgjuGLyjqmMt+PFUz//EpH+94KiqR6YA5AsFjI2Pcr/4ixiGiY62DhiGIWR8JxHVh8DlAvWyH3/l3PO4cfTzVR8/GtiOn3T/ncCIakOWANiwcWHsArdpfyX8Pj/aWtv1qhIsBec+hLo/FfLjX+Tq8a9i00xts7Onu/4HRoJXCIqoNmQJQHImiVTKmTb7pmgMsSb33Zd49CHUJACq+vHlYeODg3chWqhtRnY2fD3+X8eXBMVUGzIEIF/IY/TCKOrO9tcIYwY62ztdsRRYlAb6EKoSANX9+LLoSu/DrSN/WPP7bBj4fu9jmPXJz43KEICp5CRm55ZPmvIkEomgJRZ39JxSqLEPoWJNap4f3yrcol1h1QE2T//vut7HYKEn8yr6fbdzjkh9LNvCXHrO8fPOzc2huanFPbmASkxnDHv/mXcW9uO5h3Z/f9k+hEs+DR39+DJoy76F9wz/Puqdxp6Kvgsvtn2Rb1B14PQMYC49h8mpCUfPWSTekkA4pJ4ZSzRL9SFcMgOwmXkQtlOrMz1hsHD1xFfQyKfUmdnPLyCNyGYzUs/tRQGw01mGQ+e2FA7hOwDmCYBLsyJi2Tz9CNozhxoaI5wfhWEXOEWkDznBZb+lEF1y1BESgBppzxzEFRPfbHgcBgtBa5JDRHpRKMgTPZnnVhUSgBpoyg/ihtEHYIDPnSRY8J4AVNvhJ4KCre3encIgAaiS5vwp/NbIpxG2xrmNaYDuSIRc1GpNU5TuzF5cN/rnCFpTXMfNMe8lpBhj0mYBJqP73UJIAJbAtHPYlvwWtie/DcZ9+siQNts4j6k+pmkKa/6p5tzEfEgAFsXGirkXsXPyb5ft86+XObMdOSMiZGyV8fsCyOXkZON9OrcGC4IEoIyANY3Vsz/DxpnHkMgeF3quscBmoeOrSiAQwOxcStK5g1LOqzKuF4CdE1/DrK8TY4HNmDPakPa1Is/C8FspBAuTaC4MIJE9hs70PnRmDsC0s47ENRzWcv/ThgkFg1LyAIwxhIIkAAtxvQBYzIerJr4uO4wFMJwNXyc7CCkwZiAUimDO4VlAOBQBoyTgJbj+EzkZebfsEC7hfOhKpMwe2WFIoyna5OheUYyxi+ckLsH1AjAZ2IDR4A7ZYczjrdiHZYcgFZ9pIhp27oKMRKJUAaiA6wUAAPbF/wNU2Z5wLLAZZ8PXyg5DOrFYDAG/+Ky83x9Ac7RZ+Hl0xRMCcCG4HWciu2SHARsGXk38J6giRjJhYEjE24TemQ3DQCKeoI97CTwhAADwauLTmDNapcbwVuxuXAhukxqDSly8QFthGPxFwDRNtCbaYQoY201IqQLMZPN4fmAcp6cu7gyzqjmEf70igXhY3BaDc2YHXmz/C9w8+mkpbbgXgtvxeuKTjp+3SMG2MZhM49TUHIZTacxmC5jLF4Df+1cIp/OIpHPoHp3GmrMTWDGchFlwxq3n9/nR0daBialxZLN8SrB+fwCt8Vb37gHIkUsmR/9wJi+0QDuTzeO7b55DJj//IgyZBj6yfQWaAmI1adP0Y7h64r8LPcdCpv2r8JPObyJtOr8nnW0D/ZMpvHhmAslsdQ68ptks3v76WWw9PgzHnlZn4+KjwWZn6vYIMMYQjUQRizbTtL8C//YHH5v3yTgukc8PjF9y8QNAumDh+TP8Ou0qcSR2J15p/Qxsh2rCSd9aPNPxVSkXfzpfwONvncNTx0eqvvgBYCYSwE+vXY8n3r0d6aBDk0QGxJpi6GzvQiQSqWnvPsYYIuEIOto6EWuii78WHF8CFKf9i3Fmidd4cqzpg8gYzbh27C9h2uK2qBoO7sQLHX8h5cnAs7kCnnhrCBPp+n33Q13NePy9O3DHUwcRaWCcWjAMAy2xOJqbmpEuPR48D6uQh/XrmYHBGAzTB7/Pj2AgiGAwQCafOnFcAHJLrC2zDnaJnYncjAl/H64Z/yt0ZN7gOnaB+fFm83042PxRx2Ya5dg28PTJ0YYu/iITLWH835s24oM/PgTm4E6RjBkIh8Ke3MPPSTwtm9P+1Xi66xt4NfEfMWfy2ACZYTB8HX7U/R280XKflIsfAN68MM11NjXY3YJDG+U/w4Dgj+t7AZbDhoEjsTtxLPYBrEk9g83Tj6A1e7SmMbJGDGciN+Fo052YCPQJirQ6bBvYN8x34xIA2LujF1uPnQeTuKUXwR/PC0ARC36cjN6Gk9HbEC5cQHd6L7rSexHLDyBkTSGUH4PfnkXOiCJjxpE0V2EicBlGQldhJPg2FJgaT0k7k5zDlID1ejIWwpneONYMytnTnxCDEAEor/MvteZfjK//6uS8n/2m4YhPoJw5sx0no+/Gyah6jUTLMZAUl0g929NCAuAyuAtApTp/veQKFk5MzOJcMu2IT0B3hmeqfi5kzQx1uu8Ju16He5aqUp2/UZzyCejOdFacyzEVVWOZQ/CDuwAsVedvFKd8AjqTFiC+ReZCtKee29CrDEgOr2XJW+Ky9HlTr68LsTzc/6Krm0O8hyyxpoVMIQTBE+4CcO2KBII+/i2YQZ+J61bJbeclCLfBXQDi4QB+d1sv+hJRBDi0YwYMAxsSUdy9pYcqAATBGSFXVFPAh9v6Ohd9bWGdfyF/+PZ1IkIiiKoYHRtFOBRGJBwWslGJatAtlSDKyOdzmJ7JYXomiWAwiHAoglAwVFN7sk6QABBEBTKZDDKZDAxmIBQKIRyOIOB3lxeCBIAglsGyLczOzWJ2bhY+n99VSwTHBcBvGhX7AwJUZ24Yn8GEeQH8eTlP9VUJty0RHL/ilvIJUJ2/ccJ+cXelkEO7AulCJpPB5NQERkbPYyo5iWzOmedK8sRxAajkE6A6Px+aBApAdFa/L7gTFJcIY+MXMDo2ipnUDCzL+Z2n68FxAVjoE6A6P196YuJmUb0jSWFju4WLS4Qkzo+ex/jkGObSc44/CbkWpFxxS/kEiMZYFQth35CYsVcO8d9pyM3oUEWgW67LWNUcRjzkxyTn9XrzdBqrzpEA1IPKVQRKu7sMxoCd3fy3Ib/6jUHaD5ADqi0RaAbgQrZ0xNA/MYtTU7Ncxls9OIktR0e4jEX8BhWWCDQDcCEMwC3r2rnsoRhPpnHr88ccfSaA1yivIjgNCYBLifhN3L25Gyti9e/P0Hs+ibt+dMCxpwIRzkNLABcT9Jm4Y1MP+idT+MXABKYyVT4cNJXF2/c7/HBQQgokAC6HMaAvEcW6eATnptM4NTmH86k0ZnMWUrk8kM0jks4jMpu9+HjwwQn0np927PHghFxIADTFBvDSwAT2Dk82NpDPRLLJRLIpiOHOGF7f1lvT2992aAjXv3KKcgSaQgKgIQXbxjMnL+Do2IzsUHBgaw9S0SB+6+dH4aNZg3ZQElAzMgULTx4ZVuLiL9K/phXff/c2pIN0P9ENEgCNSOXy+N5bQxicFvf0n3oZ7ozhiffuwHQ0KDsUogZIADRhbC6HRw8PYVThjrzxljAefd/bMNoWlR0KUSUkABowmEzj8cPnMJ3Jyw5lWWbDfjzxnu0Y6I3LDoWoAhIAxemfSOHJY8PIaJRgy/lN/PDWLTi6rl12KMQykAAozP7zU3iqfwQFgY/7EkXBYHj6ho145YpVskMhlkCrtG1q+GkADNHuW2WHIhRuNX7J2Ax45YpVSAd85BVQFG0EwCqkMXLgiwCAtZ3XgxnuzDarVOPnBXkF1EWbJcDEsW8glzqNXOo0xo/8rexwhKBijZ8X5BVQEy0EYOFFXxQDN6FyjZ8X5BVQDy0EYOTAF2BbmdLP5csBN6BDjZ8X5BVQC+UFIDX8NFLDz1T9e93QqcbPC/IKqIPSArDcnX7hzEA3dKzx84K8AmqgtAAst9bXOSGoc42fF+QVkI+yAlDtxa1bQtAG8IuBCfz8zDhok93feAV+/o51sKHn8/V0RlkBqHZ6r1NCsGDb+MmJUe0NPiI4sLUHP961CXl6QKyjKPlp15rg0yEh6OYaPy/IK+A8yglAvXd0lROCXqjx84K8As6inADUu6ZXNSEoqsbPGHDDGvlPU971ixPcdw4mr4BzKCUAjV7EqiUERdX4/aaB2/u6cHkn/0eA1cq2o8P4N88eQiDL93HY5BVwBqUEoNFpvEoJQVE1/qjfh9/e3IN18QjXcRth9eAkPvTUQcRSfJdg5BUQjzICwCuRp0JCUFSNvz3ix11betAZUesR0wDQNpHCnT96A50X+CY5ySsgFiUEgPedW1ZCUGSNf3VLGB/a3IuYwhny6GwWd/z4INYNjHMdl7wC4lBCAHiv3WUkBEXW+Ld3xPD+y7oQ0KBG7s9beO9zR7DzjUHuY5NXgD/SP0lRF6uTCUFRNf5ipn/X2nYwps+dj9k2rtl7WkiFgLwCfJEuAKKm604lBEXV+FXK9NeLqAoBeQX4IVUARCfsRI8vqsavYqa/XkRVCER5BdrbOtEUbYJhmFzHVRVpAuDUHVrUDENUjV/lTH+9iKoQiPAK+H0+xJqa0dXRhdZ4G8KhsFbLr1qRJgBOrdFF5BhE1fh1yPTXi6gKgUivQDAYRLwlgc6OLrQ0xxEIuEeUi0gRAKez9DzFRlSNX6dMf72IqhCI9goYzEAkHEFbot11SwQp3zan6/Q8lxvnpjNca/y6ZvrrRVSFwGbAeDzMb8AKuG2J4LgAyHLq8TrvrrVtCPv4qL8bMv31wrtCEErnccMvT3IZq1rcsERwVABke/V5zDxCPhM3c1hvuinTXy88KwQ3/bIfkXSOQ1S1o/MSwVEBkN2txyv3sD4eQV+i/vKTGzP99cKjQtB36gL6To1xjKp+dFsiOCYAqvTr8xKhepcCbs7010sjFQIZU/9q0WGJ4JgAqLJjD69lSD1LAS9k+uul3gqBzKl/tai8RHDkm6hCi245vOKpdingtUx/vdRaIVBp6l8tqi0RhAuA7MRfJXjNSJZbCng5018v1VQIVJ76V0tpidDeheZYC/w+v+MxCBcA2Ym/SvDKSSy1FKBMf/0sVyHQYepfLYZhIBqJor2tw/lzixxclcRfJXiJ02JLAcr0N06lCoGOU39VESoAqiT+KsFzeVK+FKBMPz8WVgjcMPVXCWHfUNUSf5UoxhntvrWhcUI+EzetbcO56TSuX9UGyvXxo1gheOEda9FzPumaqb8KCBEAVRN/lRg58AWs7bwezGhsg4m+RLQhgxBRGWbbuP5luvPzRsgSQNXEXyVUz1UQhCi4C4CuF5NuokUQPOAuAKon/iqh27KFIHjAPQew4pp/rPrY2dGXcPaFO3mHMI+V1z2GSMc1Qs8hi0y+sVbaoM8EUhlkGqhWZII+BDlvi0Y4h1RT+viRr7jiHLKYTDd24cVDPrQkG9vNeKo51ND7CblIE4DZ0ZcwO/qSa84jg8kGy2HxkB/x5FxjMTSL34WHEIc0AXDyzuzWWcBktsEZQMCHeIPPM5iM0QxAZ6QIgNN3ZbfOAqYanAG0hPy0BPA4UgRAxh3ZjbMAWgIQjeK4AMi6G7txFjDZYPY9HqQlgNdxXABk3ondNAvI5AsNlQGDPvPif5l8Q2W8TNDXUBmRkIujfznZd+Hi+d3gC+BRAizSkkxjpKOp7rGmmkPoHOX72C+e+P1+dK/oRlPs4v9jajqF80PDyGT4PtNRRxydAahwB1YhBh7wWP+X/u3iPIDf78eGjRvQ3NIMwzBgGAZiLTGsv2w9/H7nd+BRDccEQPbdX7U4GoVHCbD0bxfnAbpXdMNcZMs2wzTRvaJbQkRq4ZgAqHTnVSmWeuFRAiz928WlwOK0f9HXmupf9rgFRwRAtbuuavHUAy0BqsMwKn/FDdqe3RkBUPGOq2JMtcCjBFj6t4uXAMTSCBcAVe+2qsZVDbxKgKWfqRToWYQLgMp3WpVjWwqeJcAibs4DEJURKtuq32V19QXwXP+Xfpeca8gLMNkcluYFKK/zL7XmX4xtl2+b97NlWZ7yCQidAehwh9UhxoXwLAGWfqdpHmBhnb9RvOYTECYAqt/9i+gSZzk8S4Cl32m6BKhU528Ur/gEhAmATndWnWIFxC0BGkFWKXCpOn/DY3vAJyBEAHS7q+oWL88SYOl3mi4BRGIzW3YIwhEiALrdUQF9YuZdAiz9XtNSYGo6JWzsmaS6DU684C4Aut1Ni+gSt4gSYBEd8wDnh4ZhFRrbHXkxCoUCzg8Ncx9XNbgLgC530sXQIXYR6//SaxrmATKZLI4f6UdyKgmrYDU8nlWwMDU5hf6jx5FrsNqiA9znbCuve4zreIc+tPQz07c+Psr1fKojogRYek3TPEAul8PAqYFFX1tY51/Im/vfFBGSNlA3hGaIKAGWXtNwCUA0BgmAZtASgOAJCYBmiCgBll7TdAlA1A8JgEaIKgGWXte0FLgUllU5MViw+FcPdIMEQCNElgCLuC0PsJRPwAt1/uUgAdAIkev/0jEuywNU8gl4pc6/HCQAGiGyBFg6xmV5gIU+Aa/V+Zfjkm/EVx59qn/L2u6zN+7YuiMaCrbKCIpYHJElwNIxLlsCAEv7BLwACwXswur4+dTQ6CXTu0sEoGAVNhw8Mbjh4InBTCIWfenGt20JXray+0oGMGfCJSpBSwCiFuyelnQu4huYfO1Ib+H0qUV7m5eaEwYnplPXfP/FV8EMNrS+s+PoLVdt3RCPNa0UFC+xDCJLgKVjXLYE8ByxoFXobRmc6h8wM68f7gVw2VKHV1WzsS27p394pKf/X0asSCi479qtl2Uu37B6p2kYAS5BE8siugRYOu7XpcB6y3nFUmAj5USiRgwGrEhMp43C0MTeo+txvLCq2rfW+lc2ZtOZq57ZdxDPvnZwsicef/mWndu6etoSG2sch6gRJ0qARdz+rEDX0BbNFdoiA+MHT7bkXx1sAxCrdYi6XRu2jfi5icnrv/PMi/D7fIev2rj2wjs39V0ZDPjcv42KBJxY/5eO1XiDUNfjN2Gvah2bnU2NJw8c64ON9Y0Mx8W2lcvnt7x86DhePnQ8TYlDMThRAiwdS3kA5Sgm9CZeP9JrnR1oA9DGY1zevs1QMXHoM4yTm9f2nLlxx5at0VBo6Z5eYlmcKAGWjnVhKVBLwgHbWhU/P3VuJJN+/fAaLJPQqwdhxu28Za07eGJw3cETg4Vi4vDKvjVvZ4ypZRbXBKeXAI1ApcAGYAxYeTGhN/XasbXWqcXLd7xw4mI0i4nD5/a9ObKuu+Pwriu3rGttjq124NyuwYkSYOlYWgI4DmsJF/LdsXOTR077s68OdqOOhF49OHo3tmB39g+PdPY/NVJKHF67deNVftOIOhmHbjhVAiwdT6VAZ/CZsFcXE3rH+3AUVZfvuIXg9AmLFBOHrxzuT/bEW56/6apt7SvbE1tkxaMyTpYAi1ApUBysvSmbbw2fHXvjeKLwEr+EXj1IX4/btt18bmLy+u8++yJMw6Q+hEVwcv1feg+VArlS7sefefPoOqCx8h0vpAtAOYv1IYCxq2C7/wENS+FkCbD0HsoDcKEaP75MlBKAMkp9CKH3fQUrT7+E1cd/isjsBdlxScHJEmDpPVQKrJ8a/fgyUVUASqTDCRzf/F70b7oNbSOHsab/Z+g69xoMyzsJJllLgEbwXCmwAT++TJQXgCI2Y7jQtRUXurbCn0uh98yrWNP/rOywHMHJEmDpPbQEqA4OfnyZaCMA5eT8UZzecCNOb7gRLz3+Y1f3IThdAiy9j0qBleHsx5eJlgJQjtv7EGSUAItQKXA+ovz4MtFeAMpwZR+CjPV/6b1UCnTEjy8TNwlACTf1IcgoAZbe69U8gMN+fJlod0HUiPZ9CDJKgKX3eqwUKMuPLxO3C0AJXfsQZC8BGkGLUqACfnyZeEYAytGpD0FGCbD0XhcvAVTy48vkkkz51i/98zbbtO4F8HEA7c6HJAev9iHYn3pYdgiOMc+Pf3xwnex4HGQKNv6PYeDBB15+YG/5CxVLZX1f+5dgIJ17v83s3QBuWepYl5FJxKL73FZOrIQXBGCeH38uq/SSjzN7wfBgYM738GcOfGbRhyRW9eXu+/LjK/2GeQ8YPgkba7mGqDBeeB6CawWg3I8/ONYrOxwHGQLwbatg/v2f7/1s/3IH13Z327PH2BK94mYw7IaNDwDwynMBrEgo+Lobn4fgKgFY6McvFLyS4yowhp9aNh7MRzLf2/OzPVUnjuqe3u746x8mcv7cXbCNP2CwL693HN1gDJM98fgbbnkegisEoNyPP5H0UjLvCIB/ALO+9Wcv/9n5egbgsr7d/Dff22lYxm6b2R+BB2qnRdzwPARtBWCeH/94H2x352rKSDPgBwUbD/6XX33+WQbW0GYZXD+0lf/tkXBzPvg+DyYO04lY9DUdE4e6CcA8P/6s9xJ6Pp/xT5978XPTvAYV9kXd9OUnNxmGfT9s3AeGLlHnUQ3d+hC0EIByP37/uTWyw3GQCdh41GTsG59/5fP7RZxA/J3qkUfMLacDu36dOLwD3jEfFSKh4H7V+xCUFYCFfvxc3jWJ12WwGMNzlo0H86nMk3ve3JMVeTJHp6qbvvxkr2HY9wL4BIANTp5bJgaYsn0IqgnAPD/++QnXNuEswlkADxsGvvnALx845dRJpa1VyxKH9wDwzFpOtT4EJQRgoR/fOwm9DAP+mVdCrx6kf9Drv/RIS8Dn/x1ms90AdsqOxykYY8meeMt+2X0IMgVgnh9/MpWQFojzHALw7VzB/9Cevf9Z6k630gWgHOpDcL4PwWkBID/+pX58mSglAEWoD8G5cqJTAkB+/Mp+fJkof2FRH4LYPgShAkB+/Kr8+DJRXgBKUB+CkD4E7gJAfvya/fgy0UcAyqA+BH59CNwEgPz4dfvxZaKlAJRDfQiN9SE0JADkx5dWvuOFa/5g1IdQX+KwHgEgPz5fP75MXHmRUB9C9X0IVQsA+fGF+fFl4koBKEF9CMv2ISwpAOTHd8SPLxN3C0AZ1IeweB/CYgJAfnxn/fgy8YwAlEN9CL/pQygJAPnxtU/o1YNX/siL4uU+hN5E/I0brtjSvvKbv1iTaw6eSu4/2plNznpmO3Qo5MeXiacFoByv9iH83qOHZYfgJEr68WWLglp5AAABZklEQVRCArAAr/UheEQAlPbjy8TVX+5G8UIfgosFQBs/vkxIAKrBxX0ILhMALf34MiEBqBG39SG4RAC09uPLhASgAdzQh6CxALjGjy8TEgAO6NyHoKEAuM6PLxNtvqi6oFsfgiYC4Go/vkxIAEShSR+CwgLgGT++TEgAHEDlPgQFBcBzfnyZkAA4jGp9CIoIgKf9+DIhAZCEKn0IkgWA/PiSIQFQAJl9CBIEgPz4CkECoBAy+hAcFADy4ysICYCiONWHIFgAyI+vOCQAqiO4D0GAAJAfXyNIADRCRB8CRwEgP76GkABoCq8+hAYFgPz4mkMCoDmN9iHUKQDkx3cJJAAuop4+hBoEgPz4LoQEwI3U0IewjACQH9/lkAC4nOX6ECoIAPnxPQIJgIdYrA+hTADIj+9BSAA8yI6//mEib+Z/Fwwfv+fRw2CMPWT47e8+8MIDE7JjIwiCIAiCIAiCIAiCIPjz/wFgJMj1z0NiAwAAAABJRU5ErkJggg==;" parent="1" vertex="1">
                    <mxGeometry x="170" y="750" width="60" height="60" as="geometry"/>
                </mxCell>
                <mxCell id="EBpi7y422gBd8kmgXdU--9" value="Sensor" style="sketch=0;outlineConnect=0;fontColor=#232F3E;gradientColor=none;strokeColor=#232F3E;fillColor=#ffffff;dashed=0;verticalLabelPosition=bottom;verticalAlign=top;align=center;html=1;fontSize=12;fontStyle=0;aspect=fixed;shape=mxgraph.aws4.resourceIcon;resIcon=mxgraph.aws4.sensor;" parent="1" vertex="1">
                    <mxGeometry x="422" y="653" width="60" height="60" as="geometry"/>
                </mxCell>
                <mxCell id="EBpi7y422gBd8kmgXdU--10" value="Akuator" style="sketch=0;outlineConnect=0;fontColor=#232F3E;gradientColor=none;strokeColor=#232F3E;fillColor=#ffffff;dashed=0;verticalLabelPosition=bottom;verticalAlign=top;align=center;html=1;fontSize=12;fontStyle=0;aspect=fixed;shape=mxgraph.aws4.resourceIcon;resIcon=mxgraph.aws4.actuator;" parent="1" vertex="1">
                    <mxGeometry x="320" y="652" width="60" height="60" as="geometry"/>
                </mxCell>
                <mxCell id="EBpi7y422gBd8kmgXdU--11" value="" style="endArrow=classic;startArrow=classic;html=1;fontSize=12;entryX=0.5;entryY=1;entryDx=0;entryDy=0;" parent="1" source="EBpi7y422gBd8kmgXdU--12" target="EBpi7y422gBd8kmgXdU--1" edge="1">
                    <mxGeometry width="50" height="50" relative="1" as="geometry">
                        <mxPoint x="330" y="780" as="sourcePoint"/>
                        <mxPoint x="530" y="730" as="targetPoint"/>
                        <Array as="points">
                            <mxPoint x="330" y="760"/>
                            <mxPoint x="399" y="760"/>
                        </Array>
                    </mxGeometry>
                </mxCell>
                <mxCell id="EBpi7y422gBd8kmgXdU--12" value="" style="sketch=0;outlineConnect=0;fontColor=#232F3E;gradientColor=none;fillColor=#3F8624;strokeColor=none;dashed=0;verticalLabelPosition=bottom;verticalAlign=top;align=center;html=1;fontSize=12;fontStyle=0;aspect=fixed;pointerEvents=1;shape=stencil(zZntjqMgFIavxp81cqgf/bnp7t6HaWlL1kqDdqt3v1o0K9idoZyTySaTjBzwgZfzVhAjvm8u5U1EkJTNTRzaiH+PAE6yE8fh/xC+mMh2a4p1eRUmIlU7lNuLrM9js/tVHmXbD5eNqBulTfOm1eqXeMhjO3FkfRFatqb2sWTzH1HybQiOf3x/UHU9DEequnnGfjr1J6XFWat7fbQq5upbOXa4qpirr+r3KLkz/fPcDKefimlcZJkJuR3bmMNdGw6zQR1M5Sze7tgU4wt6OnXI1u16cAbF7fLHI6pkvRBWxIyntjYviqsrj9NkZ0vLbVW5Iyh3xCwF8nen2RZlJ2sh8U1Njp6FRL6evb8T4aTJyVJAkixDvEFZmW9pNsdEnWOi3p6EHlby1nPwyWgq1YhPW9m/u/mZMqlm/P3JcxEsYP531AjvSSv1YbioSn0Wm+F6c6rKs0Ek5nY9dxCzSaju3UjzEOK2vvWFu7pN2clmo1Vbjg9Wq/mE9Rq2I54TE5IAAiMmBKiAgpgQoAIyYkKICrQfAO0HQPsB0H5gaD8wtB8Y2g8M7QeG9gND+4Gh/cDQflhvxv6XNcJ/efBe2WzptuyQFTahJgTsNVJqQsDmN6EmFGgVaAKgs0lAQGeTgIDOJgEBn000gaOzSUBAZ5OA4P2C/AVrxOLJ77FOzC9EiBWWADG/HCL2GgSIICEZNSJISEGNCBECeF8A3heA9wXgfQF4XwDeF4D3BeB9wfG+4HhfcLwvON4XL84Q/TBfcQI1H6t6LBuBR8LO+VvI0uscJFIg8AeJBIiQ7ZgjhAKBTyoFAp9UCgRBUgmOufFJpUDgk0qB8Erqx184+H6I/+OrI9+fZFW9uPV50+pL5jNqvso+A38A);" parent="1" vertex="1">
                    <mxGeometry x="290" y="788" width="78" height="78" as="geometry"/>
                </mxCell>
                <mxCell id="EBpi7y422gBd8kmgXdU--13" value="" style="dashed=0;outlineConnect=0;html=1;align=center;labelPosition=center;verticalLabelPosition=bottom;verticalAlign=top;shape=mxgraph.weblogos.arduino;fillColor=#36868D;strokeColor=none;fontSize=18;" parent="1" vertex="1">
                    <mxGeometry x="306.88" y="816.5" width="44.24" height="21" as="geometry"/>
                </mxCell>
                <mxCell id="EBpi7y422gBd8kmgXdU--14" value="" style="endArrow=classic;startArrow=classic;html=1;fontSize=12;entryX=0;entryY=0.5;entryDx=0;entryDy=0;exitX=0.5;exitY=0;exitDx=0;exitDy=0;" parent="1" source="EBpi7y422gBd8kmgXdU--8" target="EBpi7y422gBd8kmgXdU--1" edge="1">
                    <mxGeometry width="50" height="50" relative="1" as="geometry">
                        <mxPoint x="290" y="860" as="sourcePoint"/>
                        <mxPoint x="340" y="810" as="targetPoint"/>
                        <Array as="points">
                            <mxPoint x="200" y="690"/>
                        </Array>
                    </mxGeometry>
                </mxCell>
                <mxCell id="EBpi7y422gBd8kmgXdU--15" value="" style="group" parent="1" vertex="1" connectable="0">
                    <mxGeometry x="358" y="760" width="78" height="100.5" as="geometry"/>
                </mxCell>
                <mxCell id="EBpi7y422gBd8kmgXdU--16" value="RX" style="sketch=0;outlineConnect=0;fontColor=#232F3E;gradientColor=none;fillColor=#4D27AA;strokeColor=none;dashed=0;verticalLabelPosition=bottom;verticalAlign=top;align=center;html=1;fontSize=12;fontStyle=0;aspect=fixed;pointerEvents=1;shape=stencil(zVfhboMgEH4af0pAdNWfS7e9B1GqZFYMuNW+/VA0FXEZEpssaVL9Dr67+7hDCPBZVqSlQQSJbGneBfgtiKIL62mh/hVcaSTGIEaxhhpypRotSEcUQPu8Ik05sFy4GLhaJvVY2Qn+SW+s6CYi1lRUsE5bbxN5DFCWDBB+D+CrMgw/fM5506iYGG/kiH2s7MoZLQX/agrDMJtbMji1DLP5yr+HiHsdA4oAzE46rLuGMAInOEFr5yZVzZoFFX4qFfKk2kjQnSqvuaR/jjIVxdhymLn6IyJXDzURJQ3Vc3ipSakpoJ4u5qym17vxKm+UtotJEzwHFj8C60PSMxkK3pGhzgwfMyf0XLvYLoPofwiAdwmghvtVHLIFcKZ6qgBqSXcJ4LxsKwGg3XLOxfRcAdAuAZz71mefSEAKY8Nd6tFsIEHIIEn81iy2i/Y4Js9GspPzJLKlRo/P+q7cAM4MHrifA645nOI4uC2g0RaPkByaIjlIusyVx6e51LltveTY2eGqCjOLankq3EWVWmsfeSgJwUuK17l5dpjVqscxnTz3j430PKlsvbFn9W4UAfZpgo2ydNr1n/pVXEblciw4qHPxWeG/XFbUJYfV9cbUcZJ1ARpRfaMbgR8=);" parent="EBpi7y422gBd8kmgXdU--15" vertex="1">
                    <mxGeometry y="33.5" width="78" height="67" as="geometry"/>
                </mxCell>
                <mxCell id="EBpi7y422gBd8kmgXdU--17" value="&lt;font style=&quot;font-size: 12px;&quot;&gt;TX&lt;/font&gt;" style="text;html=1;align=center;verticalAlign=middle;resizable=0;points=[];autosize=1;strokeColor=none;fillColor=none;fontSize=18;" parent="EBpi7y422gBd8kmgXdU--15" vertex="1">
                    <mxGeometry x="19" width="40" height="40" as="geometry"/>
                </mxCell>
                <mxCell id="EBpi7y422gBd8kmgXdU--18" value="csv" style="text;html=1;align=center;verticalAlign=middle;resizable=0;points=[];autosize=1;strokeColor=none;fillColor=none;fontSize=12;" parent="EBpi7y422gBd8kmgXdU--15" vertex="1">
                    <mxGeometry x="19" y="52" width="40" height="30" as="geometry"/>
                </mxCell>
                <mxCell id="EBpi7y422gBd8kmgXdU--19" value="" style="group" parent="1" vertex="1" connectable="0">
                    <mxGeometry x="222" y="890.5" width="78" height="100.5" as="geometry"/>
                </mxCell>
                <mxCell id="EBpi7y422gBd8kmgXdU--20" value="RX" style="sketch=0;outlineConnect=0;fontColor=#232F3E;gradientColor=none;fillColor=#4D27AA;strokeColor=none;dashed=0;verticalLabelPosition=bottom;verticalAlign=top;align=center;html=1;fontSize=12;fontStyle=0;aspect=fixed;pointerEvents=1;shape=stencil(zVfhboMgEH4af0pAdNWfS7e9B1GqZFYMuNW+/VA0FXEZEpssaVL9Dr67+7hDCPBZVqSlQQSJbGneBfgtiKIL62mh/hVcaSTGIEaxhhpypRotSEcUQPu8Ik05sFy4GLhaJvVY2Qn+SW+s6CYi1lRUsE5bbxN5DFCWDBB+D+CrMgw/fM5506iYGG/kiH2s7MoZLQX/agrDMJtbMji1DLP5yr+HiHsdA4oAzE46rLuGMAInOEFr5yZVzZoFFX4qFfKk2kjQnSqvuaR/jjIVxdhymLn6IyJXDzURJQ3Vc3ipSakpoJ4u5qym17vxKm+UtotJEzwHFj8C60PSMxkK3pGhzgwfMyf0XLvYLoPofwiAdwmghvtVHLIFcKZ6qgBqSXcJ4LxsKwGg3XLOxfRcAdAuAZz71mefSEAKY8Nd6tFsIEHIIEn81iy2i/Y4Js9GspPzJLKlRo/P+q7cAM4MHrifA645nOI4uC2g0RaPkByaIjlIusyVx6e51LltveTY2eGqCjOLankq3EWVWmsfeSgJwUuK17l5dpjVqscxnTz3j430PKlsvbFn9W4UAfZpgo2ydNr1n/pVXEblciw4qHPxWeG/XFbUJYfV9cbUcZJ1ARpRfaMbgR8=);" parent="EBpi7y422gBd8kmgXdU--19" vertex="1">
                    <mxGeometry y="33.5" width="78" height="67" as="geometry"/>
                </mxCell>
                <mxCell id="EBpi7y422gBd8kmgXdU--21" value="&lt;font style=&quot;font-size: 12px;&quot;&gt;TX&lt;/font&gt;" style="text;html=1;align=center;verticalAlign=middle;resizable=0;points=[];autosize=1;strokeColor=none;fillColor=none;fontSize=18;" parent="EBpi7y422gBd8kmgXdU--19" vertex="1">
                    <mxGeometry x="19" width="40" height="40" as="geometry"/>
                </mxCell>
                <mxCell id="EBpi7y422gBd8kmgXdU--22" value="csv" style="text;html=1;align=center;verticalAlign=middle;resizable=0;points=[];autosize=1;strokeColor=none;fillColor=none;fontSize=12;" parent="EBpi7y422gBd8kmgXdU--19" vertex="1">
                    <mxGeometry x="19" y="52" width="40" height="30" as="geometry"/>
                </mxCell>
                <mxCell id="EBpi7y422gBd8kmgXdU--24" value="RX" style="sketch=0;outlineConnect=0;fontColor=#232F3E;gradientColor=none;fillColor=#3F8624;strokeColor=none;dashed=0;verticalLabelPosition=bottom;verticalAlign=top;align=center;html=1;fontSize=12;fontStyle=0;aspect=fixed;pointerEvents=1;shape=stencil(zZntjqMgFIavxp81cqgf/bnp7t6HaWlL1kqDdqt3v1o0K9idoZyTySaTjBzwgZfzVhAjvm8u5U1EkJTNTRzaiH+PAE6yE8fh/xC+mMh2a4p1eRUmIlU7lNuLrM9js/tVHmXbD5eNqBulTfOm1eqXeMhjO3FkfRFatqb2sWTzH1HybQiOf3x/UHU9DEequnnGfjr1J6XFWat7fbQq5upbOXa4qpirr+r3KLkz/fPcDKefimlcZJkJuR3bmMNdGw6zQR1M5Sze7tgU4wt6OnXI1u16cAbF7fLHI6pkvRBWxIyntjYviqsrj9NkZ0vLbVW5Iyh3xCwF8nen2RZlJ2sh8U1Njp6FRL6evb8T4aTJyVJAkixDvEFZmW9pNsdEnWOi3p6EHlby1nPwyWgq1YhPW9m/u/mZMqlm/P3JcxEsYP531AjvSSv1YbioSn0Wm+F6c6rKs0Ek5nY9dxCzSaju3UjzEOK2vvWFu7pN2clmo1Vbjg9Wq/mE9Rq2I54TE5IAAiMmBKiAgpgQoAIyYkKICrQfAO0HQPsB0H5gaD8wtB8Y2g8M7QeG9gND+4Gh/cDQflhvxv6XNcJ/efBe2WzptuyQFTahJgTsNVJqQsDmN6EmFGgVaAKgs0lAQGeTgIDOJgEBn000gaOzSUBAZ5OA4P2C/AVrxOLJ77FOzC9EiBWWADG/HCL2GgSIICEZNSJISEGNCBECeF8A3heA9wXgfQF4XwDeF4D3BeB9wfG+4HhfcLwvON4XL84Q/TBfcQI1H6t6LBuBR8LO+VvI0uscJFIg8AeJBIiQ7ZgjhAKBTyoFAp9UCgRBUgmOufFJpUDgk0qB8Erqx184+H6I/+OrI9+fZFW9uPV50+pL5jNqvso+A38A);" parent="1" vertex="1">
                    <mxGeometry x="290" y="918" width="78" height="78" as="geometry"/>
                </mxCell>
                <mxCell id="EBpi7y422gBd8kmgXdU--25" value="&lt;b&gt;&lt;font style=&quot;font-size: 18px;&quot;&gt;ESP&lt;br&gt;32&lt;/font&gt;&lt;/b&gt;" style="text;html=1;align=center;verticalAlign=middle;resizable=0;points=[];autosize=1;strokeColor=none;fillColor=none;" parent="1" vertex="1">
                    <mxGeometry x="299" y="927" width="60" height="60" as="geometry"/>
                </mxCell>
                <mxCell id="EBpi7y422gBd8kmgXdU--26" value="TX" style="sketch=0;outlineConnect=0;fontColor=#232F3E;gradientColor=none;fillColor=#3F8624;strokeColor=none;dashed=0;verticalLabelPosition=bottom;verticalAlign=top;align=center;html=1;fontSize=12;fontStyle=0;aspect=fixed;pointerEvents=1;shape=stencil(zZntjqMgFIavxp81cqgf/bnp7t6HaWlL1kqDdqt3v1o0K9idoZyTySaTjBzwgZfzVhAjvm8u5U1EkJTNTRzaiH+PAE6yE8fh/xC+mMh2a4p1eRUmIlU7lNuLrM9js/tVHmXbD5eNqBulTfOm1eqXeMhjO3FkfRFatqb2sWTzH1HybQiOf3x/UHU9DEequnnGfjr1J6XFWat7fbQq5upbOXa4qpirr+r3KLkz/fPcDKefimlcZJkJuR3bmMNdGw6zQR1M5Sze7tgU4wt6OnXI1u16cAbF7fLHI6pkvRBWxIyntjYviqsrj9NkZ0vLbVW5Iyh3xCwF8nen2RZlJ2sh8U1Njp6FRL6evb8T4aTJyVJAkixDvEFZmW9pNsdEnWOi3p6EHlby1nPwyWgq1YhPW9m/u/mZMqlm/P3JcxEsYP531AjvSSv1YbioSn0Wm+F6c6rKs0Ek5nY9dxCzSaju3UjzEOK2vvWFu7pN2clmo1Vbjg9Wq/mE9Rq2I54TE5IAAiMmBKiAgpgQoAIyYkKICrQfAO0HQPsB0H5gaD8wtB8Y2g8M7QeG9gND+4Gh/cDQflhvxv6XNcJ/efBe2WzptuyQFTahJgTsNVJqQsDmN6EmFGgVaAKgs0lAQGeTgIDOJgEBn000gaOzSUBAZ5OA4P2C/AVrxOLJ77FOzC9EiBWWADG/HCL2GgSIICEZNSJISEGNCBECeF8A3heA9wXgfQF4XwDeF4D3BeB9wfG+4HhfcLwvON4XL84Q/TBfcQI1H6t6LBuBR8LO+VvI0uscJFIg8AeJBIiQ7ZgjhAKBTyoFAp9UCgRBUgmOufFJpUDgk0qB8Erqx184+H6I/+OrI9+fZFW9uPV50+pL5jNqvso+A38A);" parent="1" vertex="1">
                    <mxGeometry x="426" y="788" width="78" height="78" as="geometry"/>
                </mxCell>
                <mxCell id="EBpi7y422gBd8kmgXdU--27" value="&lt;b&gt;&lt;font style=&quot;font-size: 18px;&quot;&gt;ESP&lt;br&gt;32&lt;/font&gt;&lt;/b&gt;" style="text;html=1;align=center;verticalAlign=middle;resizable=0;points=[];autosize=1;strokeColor=none;fillColor=none;" parent="1" vertex="1">
                    <mxGeometry x="435" y="797" width="60" height="60" as="geometry"/>
                </mxCell>
            </root>
        </mxGraphModel>
    </diagram>
    <diagram id="5JhPlAYAVtLkTR1jWwhx" name="sensor">
        <mxGraphModel dx="1284" dy="572" grid="1" gridSize="10" guides="1" tooltips="1" connect="1" arrows="1" fold="1" page="1" pageScale="1" pageWidth="827" pageHeight="1169" math="0" shadow="0">
            <root>
                <mxCell id="0"/>
                <mxCell id="1" parent="0"/>
            </root>
        </mxGraphModel>
    </diagram>
    <diagram id="JKbNTuRWNVXsQAsSk9-d" name="room">
        <mxGraphModel dx="1352" dy="602" grid="1" gridSize="10" guides="1" tooltips="1" connect="1" arrows="1" fold="1" page="1" pageScale="1" pageWidth="827" pageHeight="1169" math="0" shadow="0">
            <root>
                <mxCell id="0"/>
                <mxCell id="1" parent="0"/>
                <mxCell id="B6GGa1WroDoWzZTIGcku-2" value="" style="rounded=1;whiteSpace=wrap;html=1;strokeColor=#666666;fontSize=14;fontColor=#333333;fillColor=#f5f5f5;arcSize=3;" vertex="1" parent="1">
                    <mxGeometry x="230" y="690" width="380" height="290" as="geometry"/>
                </mxCell>
                <mxCell id="B6GGa1WroDoWzZTIGcku-3" value="" style="rounded=1;whiteSpace=wrap;html=1;fontSize=12;arcSize=5;" vertex="1" parent="1">
                    <mxGeometry x="240" y="872" width="194" height="100" as="geometry"/>
                </mxCell>
                <mxCell id="B6GGa1WroDoWzZTIGcku-4" value="Sensor" style="sketch=0;outlineConnect=0;fontColor=#232F3E;gradientColor=none;strokeColor=#232F3E;fillColor=#ffffff;dashed=0;verticalLabelPosition=bottom;verticalAlign=top;align=center;html=1;fontSize=12;fontStyle=0;aspect=fixed;shape=mxgraph.aws4.resourceIcon;resIcon=mxgraph.aws4.sensor;" vertex="1" parent="1">
                    <mxGeometry x="360" y="885" width="60" height="60" as="geometry"/>
                </mxCell>
                <mxCell id="B6GGa1WroDoWzZTIGcku-5" value="Akuator" style="sketch=0;outlineConnect=0;fontColor=#232F3E;gradientColor=none;strokeColor=#232F3E;fillColor=#ffffff;dashed=0;verticalLabelPosition=bottom;verticalAlign=top;align=center;html=1;fontSize=12;fontStyle=0;aspect=fixed;shape=mxgraph.aws4.resourceIcon;resIcon=mxgraph.aws4.actuator;" vertex="1" parent="1">
                    <mxGeometry x="258" y="884" width="60" height="60" as="geometry"/>
                </mxCell>
                <mxCell id="B6GGa1WroDoWzZTIGcku-6" value="R" style="verticalLabelPosition=bottom;shadow=0;dashed=0;align=center;html=1;verticalAlign=top;shape=mxgraph.electrical.radio.microphone_2;fontSize=14;" vertex="1" parent="1">
                    <mxGeometry x="550" y="880" width="42" height="70" as="geometry"/>
                </mxCell>
                <mxCell id="B6GGa1WroDoWzZTIGcku-7" value="L" style="verticalLabelPosition=bottom;shadow=0;dashed=0;align=center;html=1;verticalAlign=top;shape=mxgraph.electrical.radio.microphone_2;fontSize=14;" vertex="1" parent="1">
                    <mxGeometry x="550" y="708" width="42" height="70" as="geometry"/>
                </mxCell>
                <mxCell id="B6GGa1WroDoWzZTIGcku-8" value="Aktor" style="shape=umlActor;verticalLabelPosition=bottom;verticalAlign=top;html=1;outlineConnect=0;fontSize=14;strokeWidth=3;" vertex="1" parent="1">
                    <mxGeometry x="330" y="730.5" width="50" height="99" as="geometry"/>
                </mxCell>
                <mxCell id="B6GGa1WroDoWzZTIGcku-9" value="sound" style="text;html=1;align=center;verticalAlign=middle;resizable=0;points=[];autosize=1;strokeColor=none;fillColor=none;" vertex="1" parent="1">
                    <mxGeometry x="490" y="900" width="60" height="30" as="geometry"/>
                </mxCell>
                <mxCell id="B6GGa1WroDoWzZTIGcku-10" value="sound" style="text;html=1;align=center;verticalAlign=middle;resizable=0;points=[];autosize=1;strokeColor=none;fillColor=none;" vertex="1" parent="1">
                    <mxGeometry x="490" y="728" width="60" height="30" as="geometry"/>
                </mxCell>
            </root>
        </mxGraphModel>
    </diagram>
    <diagram id="T1wgGwrTMwlyVKWNpg6K" name="SKETCH 1">
        <mxGraphModel dx="938" dy="478" grid="1" gridSize="10" guides="1" tooltips="1" connect="1" arrows="1" fold="1" page="1" pageScale="1" pageWidth="583" pageHeight="827" math="0" shadow="0">
            <root>
                <mxCell id="0"/>
                <mxCell id="1" parent="0"/>
                <mxCell id="3eUnuSAXsB4PkMuB5CEK-44" value="" style="rounded=1;whiteSpace=wrap;html=1;fontSize=12;arcSize=3;fillColor=#f5f5f5;strokeColor=#666666;fontColor=#333333;" parent="1" vertex="1">
                    <mxGeometry x="27.5" y="460" width="210" height="270" as="geometry"/>
                </mxCell>
                <mxCell id="3eUnuSAXsB4PkMuB5CEK-43" value="&lt;div style=&quot;text-align: left;&quot;&gt;&lt;b style=&quot;background-color: initial;&quot;&gt;&lt;font style=&quot;font-size: 14px;&quot;&gt;SKETCH 1 -&lt;/font&gt;&lt;/b&gt;&lt;/div&gt;&lt;font size=&quot;3&quot;&gt;&lt;b&gt;Monitoring &amp;amp; Control&lt;/b&gt;&lt;/font&gt;" style="text;html=1;align=center;verticalAlign=middle;resizable=0;points=[];autosize=1;strokeColor=none;fillColor=none;fontSize=12;" parent="1" vertex="1">
                    <mxGeometry x="14" y="1191" width="180" height="50" as="geometry"/>
                </mxCell>
                <mxCell id="3eUnuSAXsB4PkMuB5CEK-46" value="&lt;font color=&quot;#ffe91f&quot;&gt;Cahaya&lt;/font&gt;" style="sketch=0;outlineConnect=0;fillColor=#FFE91F;strokeColor=#d6b656;dashed=0;verticalLabelPosition=bottom;verticalAlign=top;align=center;html=1;fontSize=12;fontStyle=0;aspect=fixed;pointerEvents=1;shape=mxgraph.aws4.lightbulb;" parent="1" vertex="1">
                    <mxGeometry x="139.5" y="616" width="78" height="78" as="geometry"/>
                </mxCell>
                <mxCell id="3eUnuSAXsB4PkMuB5CEK-47" value="&lt;font color=&quot;#3f8624&quot;&gt;Kelembapan&lt;/font&gt;" style="sketch=0;outlineConnect=0;fontColor=#232F3E;gradientColor=none;fillColor=#3F8624;strokeColor=none;dashed=0;verticalLabelPosition=bottom;verticalAlign=top;align=center;html=1;fontSize=12;fontStyle=0;aspect=fixed;pointerEvents=1;shape=mxgraph.aws4.iot_thing_humidity_sensor;" parent="1" vertex="1">
                    <mxGeometry x="139.5" y="506" width="78" height="78" as="geometry"/>
                </mxCell>
                <mxCell id="3eUnuSAXsB4PkMuB5CEK-48" value="&lt;font color=&quot;#ffb03b&quot;&gt;Suhu&lt;/font&gt;" style="sketch=0;outlineConnect=0;fillColor=#FFB03B;strokeColor=#d79b00;dashed=0;verticalLabelPosition=bottom;verticalAlign=top;align=center;html=1;fontSize=12;fontStyle=0;aspect=fixed;pointerEvents=1;shape=mxgraph.aws4.iot_thing_temperature_sensor;" parent="1" vertex="1">
                    <mxGeometry x="44.5" y="506" width="78" height="78" as="geometry"/>
                </mxCell>
                <mxCell id="3eUnuSAXsB4PkMuB5CEK-49" value="&lt;font color=&quot;#3378ed&quot;&gt;Suara&lt;/font&gt;" style="sketch=0;outlineConnect=0;fillColor=#3378ed;strokeColor=#3378ed;dashed=0;verticalLabelPosition=bottom;verticalAlign=top;align=center;html=1;fontSize=12;fontStyle=0;aspect=fixed;pointerEvents=1;shape=stencil(zZntjqMgFIavxp81cqgf/bnp7t6HaWlL1kqDdqt3v1o0K9idoZyTySaTjBzwgZfzVhAjvm8u5U1EkJTNTRzaiH+PAE6yE8fh/xC+mMh2a4p1eRUmIlU7lNuLrM9js/tVHmXbD5eNqBulTfOm1eqXeMhjO3FkfRFatqb2sWTzH1HybQiOf3x/UHU9DEequnnGfjr1J6XFWat7fbQq5upbOXa4qpirr+r3KLkz/fPcDKefimlcZJkJuR3bmMNdGw6zQR1M5Sze7tgU4wt6OnXI1u16cAbF7fLHI6pkvRBWxIyntjYviqsrj9NkZ0vLbVW5Iyh3xCwF8nen2RZlJ2sh8U1Njp6FRL6evb8T4aTJyVJAkixDvEFZmW9pNsdEnWOi3p6EHlby1nPwyWgq1YhPW9m/u/mZMqlm/P3JcxEsYP531AjvSSv1YbioSn0Wm+F6c6rKs0Ek5nY9dxCzSaju3UjzEOK2vvWFu7pN2clmo1Vbjg9Wq/mE9Rq2I54TE5IAAiMmBKiAgpgQoAIyYkKICrQfAO0HQPsB0H5gaD8wtB8Y2g8M7QeG9gND+4Gh/cDQflhvxv6XNcJ/efBe2WzptuyQFTahJgTsNVJqQsDmN6EmFGgVaAKgs0lAQGeTgIDOJgEBn000gaOzSUBAZ5OA4P2C/AVrxOLJ77FOzC9EiBWWADG/HCL2GgSIICEZNSJISEGNCBECeF8A3heA9wXgfQF4XwDeF4D3BeB9wfG+4HhfcLwvON4XL84Q/TBfcQI1H6t6LBuBR8LO+VvI0uscJFIg8AeJBIiQ7ZgjhAKBTyoFAp9UCgRBUgmOufFJpUDgk0qB8Erqx184+H6I/+OrI9+fZFW9uPV50+pL5jNqvso+A38A);" parent="1" vertex="1">
                    <mxGeometry x="44.5" y="616" width="78" height="78" as="geometry"/>
                </mxCell>
                <mxCell id="3eUnuSAXsB4PkMuB5CEK-50" value="" style="shape=image;verticalLabelPosition=bottom;labelBackgroundColor=default;verticalAlign=top;aspect=fixed;imageAspect=0;image=data:image/png,iVBORw0KGgoAAAANSUhEUgAAAIAAAACACAYAAADDPmHLAAAACXBIWXMAAAOwAAADsAEnxA+tAAAAGXRFWHRTb2Z0d2FyZQB3d3cuaW5rc2NhcGUub3Jnm+48GgAACcJJREFUeJzt3W2MVNUZB/D/c+7M7MzsvO2igYjCLqXWgqUtQtXYFrYJElhpa2zVtqlGq42NbTEiVG2jtLGp2ChB0vSDDQUWIVD6wRDse+mLNqbCItJdrEkrRV128QVkd8fZ+3KefkANi+vsvTP3zgx7nl+yn+4z9zyT+Wdu9twz5xLOAi17eZpD3koClgI4H4Tj0Pg7wOsG58Wfqnd/ZzOqdwPjye5zlwHYCiAzZgHxg4Nz4/fUtKkJpKEDkN9nX6KhngKQLFdHTMtPzrMerVFbE0pDByDb7e4BY6GP0pMqbrW9NYeOR93TRKPq3cAHSXfzeWAs8FmeY8frjLShCaphA6A890IE+obiiyJrZgJr3AAQNQep10CgenFKwwZA1IYEwHASAMNJAAwnATCcBMBwEgDDSQAMJwEwnATAcBIAw0kADCcBMJwEwHCxejdQL+dvKk6NW3o2ADie6nnlxvSr9e4JAMBMH+oamu2Smq6gTqabkvt7rqWhqIYzLgBtjw99Ap56BMQLmYkAIKaY27qKewj6zpe+njlQt942F6/HluKPPVIzCABDY3ikWGrbMrxRk3Pvka8VQl/yZtQloH3L0JXQ9DSIOzB6tREB/DkG/aO9a2hRXXrbPPwAiLcBmHHGoSQYtykde6Z969DksMc1JgDtW4cmM9MOAOkyZWkGbZ+5YfDcWvUFAO1dw59nwvfLV9GF7NHmsMc2JgCsaTmAvI/SFi+mlkfdzxnu81l35fRNxcvDHNiYAICxxHcp+a+t1swNg+cyMNf3CxSH2ps5AQCmBqi9ILIuzuA20VQEWP1MFG5vJgUgHlFtVRRToLEoYP2444d5MnH2kQAYTgJguEhnAts3Dc1hRZczcUZpdYS9kT8cvqnlRJRjimAiCcCMTaULtXIfY9BnAYCYwMRALFFs6xp+6HBT+gFcS14UY4tgQr8ETNs4OFsr7xm88+GfIQ1gddvI8BYwN/RP000RbgB2sKUstQ1AS/lCun56V/HmUMcWFQk1ANNLxcUAPuanlohWhjm2qEy43wBEHf6L+SMXbBs+L9TxRWAhBwCBblcqF1NCHV8EFmoAFAc7n0WwwhxfBCcTQYaTABhOAmA44xaFhm4vx7PkXQXmTwOUJ8WvwuPdJ+cn/lnv1vyQAFQht9e+lMnbAmAmTi0wPjXBqei+bLf7JLR14+A8er2+XZYnl4AK5bvteZrUnwHMHLOAsRSk97Q+w7nadhaMBKASO9jS2tpI5VcYA+CLnbi7uiY9VUgCUIHmmW4HiGf7q6ZbsYfLbnZdTxKAChDUZQHKM7mMMyeyZqokAagAsW4N9gp1TjSdVE8CUAEOus0+Ne62/BIAw0kADCcBMNyomcDMs85CUvQVAB8FwWPm57TmzcX5if116k9UIb/XnusR3UBEHwfDAnCIibcOzY3/9d2aGACc28OZUsnbCOCa917NAIEWWoqWZ7qd9UNvxVagg9xavwlRgT0cy+S8tRq4nQACv3fkM8T0zexed2cyZd302mwaUmBWb5e8nTj9wx+NiOm7mZy3tibNi6rlct46Ar6ND/pvhfCl0oi3HcxK5bq9rxKweLyTEnB77ln7U2E3K8KV22dfxsC3xi1kLM3t965TTPiGz3MTKyVLuRscQ90Mn/MUzLhFgQNsThBkIwNRJxTo81QAAtyu5ELQdkSt6SC3nwsyD2A4CYDhJACGi03qHfFdrGNoGyxzPPtS6Yp4kctUjOaco2YBeHasY+mjzvzkCe37XHaWFpTbT7X1UClPPk/HCvnDZY7nXnYWJAb9v89SQc0/Cewe61im354Vf93/+3TSdEW54y0v2m0qwHSdfAMYTgJgOAmA4RRb5PtiphXZUTYjqqct5fszYotY6bjyvWmTTtD/KmtL1IqO44jv2gQdV04aW32/IImHKmtL1IpO4Kd+a50EPa760013uCn12njFdoYO9C9JbaquPRG1/s7UL+0sPT9enZNWA/3Lmu5Q6CDXySYvdprp5TErCbBz1N3npORW8FmiL5+61M7S/g+6J+ik6YibSc4BkY4BwMBiOgZg2uQnS9+xRvg25WIqgbQX1//VTdaa/iVNv6ph/6JaHVTqA+ZO/l3xOquEVZat2hmsdByv6Lj18/7OxM/eLR21JnBgaXI9gPU1b1hEYmBxejuA7eVqZB7AcBIAw0kADCcBqMTpC639CVpfMxKACjDozUAviOFwNJ1UTwJQAc/i3/qtZQUulZJPRNlPNSQAFTjWnFrnJdTbfmqdZrXvxNXUsA/JkABUooNcO4NbWJW/tHsJVWqakryqRl1VRAJQoYHO1Fa7kLhBJ8a+/eqmVH8pTXNeuowGat1bELJPYBWOdia6ztvFv+Z06QfkYREYWSYcRdzacLQz0VXv/vyQAFSpbxkVAdz7zt9ZRy4BhpMAGE4CYLhQA8BK+f+FAwBPKSfM8UVwYT8z6I0g5cz6UKjji8BCDYBO0C6/tV6c7N4VLbL5VJ2FGoCe4dxPdJJ8TZHazWpLmGOLyoR7CVhNbqnZ+rK2yt/+dDLqcG8pf2uoY4uKhP5fwKGV+d0jrdYiN2UdP/MYK8DOqz8+7xY+jNV+f6srohTJTGDvisKfALTOevD4FxSpa8C6AEX/huU9+q8VLWMvPxd1EelUcO/dLU8AaNh74UImgownATCcBMBwxgSAyf8+CEFqq6WJSkHqSQXZAWh85gTAYt+7YXEs2IdSDWJ1IMgDZbTio2GOb0wAvJTyPe3sJtEdZS+nO3hX7gUvqYb91rsx2hzm+MYEQMf1razG/4GGtsBWIuV3A+1QOCn1sJ86N6VeP7Sq8IswxzYmAD13Tep18tY9XObrlhXg5q27D6xIvli7zoCeVfn77bz6W7kaL06226wXhD22MQEAgIPfK6yxJ6lrnJR6c9R1lwAnrd5wWuNXH1xVqMs2OAfvaVlQKsTW6vjoNRKsACdnHXQLPLPnrkm9YY/bsM+zm7Lr7dXJE/p+v/V2lvb3fTHte6v0WQ8f/6Tl0pUgsAb/vmdVy3OVdRq+ix55c5lyrEsIOFZSaud/VmaPRTWWsauC31mL0JDrEV64s3UXAN9rK6ph1CVAvJ8EwHASAMNJAAwnATCcBMBwEgDDSQAMJwEwnATAcBIAw0kADCcBMJwEwHANGwAmDri5IhWj6WRia9gAaIr9JVC9hXGfkyPer2ED8Fpn4jkvSe/7hfFYWBGTwpqoe5qIGjYAAGCncXu5RZzvcnLWzqOdKXmmYQUaOgADneltI3n1w3JPN7Wz6um+ZU3X1rKviaRhF4Webspv7Pmq5D4WG+FZ5CLOCtpLUp+bpB8NLE09Vu/+zmb/B6VZ0JRVEqsJAAAAAElFTkSuQmCC;" parent="1" vertex="1">
                    <mxGeometry x="65.5" y="637" width="36" height="36" as="geometry"/>
                </mxCell>
                <mxCell id="3eUnuSAXsB4PkMuB5CEK-54" value="" style="group" parent="1" vertex="1" connectable="0">
                    <mxGeometry x="89.5" y="465" width="70" height="30" as="geometry"/>
                </mxCell>
                <mxCell id="3eUnuSAXsB4PkMuB5CEK-53" value="" style="rounded=1;whiteSpace=wrap;html=1;fontSize=12;arcSize=22;fillColor=#d5e8d4;strokeColor=#82b366;" parent="3eUnuSAXsB4PkMuB5CEK-54" vertex="1">
                    <mxGeometry y="5" width="70" height="20" as="geometry"/>
                </mxCell>
                <mxCell id="3eUnuSAXsB4PkMuB5CEK-51" value="&lt;font style=&quot;font-size: 14px;&quot; color=&quot;#000000&quot;&gt;&lt;b&gt;Sensor&lt;/b&gt;&lt;/font&gt;" style="text;html=1;align=center;verticalAlign=middle;resizable=0;points=[];autosize=1;strokeColor=none;fillColor=none;fontSize=14;fontColor=#ffe91f;" parent="3eUnuSAXsB4PkMuB5CEK-54" vertex="1">
                    <mxGeometry width="70" height="30" as="geometry"/>
                </mxCell>
                <mxCell id="3eUnuSAXsB4PkMuB5CEK-55" value="" style="rounded=1;whiteSpace=wrap;html=1;fontSize=12;arcSize=3;fillColor=#f5f5f5;strokeColor=#666666;fontColor=#333333;" parent="1" vertex="1">
                    <mxGeometry x="530" y="616" width="210" height="157" as="geometry"/>
                </mxCell>
                <mxCell id="3eUnuSAXsB4PkMuB5CEK-56" value="&lt;font color=&quot;#ffe91f&quot;&gt;Cahaya&lt;/font&gt;" style="sketch=0;outlineConnect=0;fillColor=#FFE91F;strokeColor=#d6b656;dashed=0;verticalLabelPosition=bottom;verticalAlign=top;align=center;html=1;fontSize=12;fontStyle=0;aspect=fixed;pointerEvents=1;shape=mxgraph.aws4.lightbulb;" parent="1" vertex="1">
                    <mxGeometry x="545" y="665" width="78" height="78" as="geometry"/>
                </mxCell>
                <mxCell id="3eUnuSAXsB4PkMuB5CEK-57" value="&lt;font color=&quot;#3f8624&quot;&gt;Kelembapan&lt;/font&gt;" style="sketch=0;outlineConnect=0;fontColor=#232F3E;gradientColor=none;fillColor=#3F8624;strokeColor=none;dashed=0;verticalLabelPosition=bottom;verticalAlign=top;align=center;html=1;fontSize=12;fontStyle=0;aspect=fixed;pointerEvents=1;shape=mxgraph.aws4.iot_thing_humidity_sensor;" parent="1" vertex="1">
                    <mxGeometry x="642" y="665" width="78" height="78" as="geometry"/>
                </mxCell>
                <mxCell id="3eUnuSAXsB4PkMuB5CEK-61" value="" style="group" parent="1" vertex="1" connectable="0">
                    <mxGeometry x="595" y="626" width="78" height="30" as="geometry"/>
                </mxCell>
                <mxCell id="3eUnuSAXsB4PkMuB5CEK-62" value="" style="rounded=1;whiteSpace=wrap;html=1;fontSize=12;arcSize=22;fillColor=#d5e8d4;strokeColor=#82b366;" parent="3eUnuSAXsB4PkMuB5CEK-61" vertex="1">
                    <mxGeometry y="5" width="72.8" height="20" as="geometry"/>
                </mxCell>
                <mxCell id="3eUnuSAXsB4PkMuB5CEK-63" value="&lt;font style=&quot;font-size: 14px;&quot; color=&quot;#000000&quot;&gt;&lt;b&gt;Akuator&lt;/b&gt;&lt;/font&gt;" style="text;html=1;align=center;verticalAlign=middle;resizable=0;points=[];autosize=1;strokeColor=none;fillColor=none;fontSize=14;fontColor=#ffe91f;" parent="3eUnuSAXsB4PkMuB5CEK-61" vertex="1">
                    <mxGeometry x="-2" width="80" height="30" as="geometry"/>
                </mxCell>
                <mxCell id="3eUnuSAXsB4PkMuB5CEK-64" value="" style="sketch=0;outlineConnect=0;fontColor=#232F3E;gradientColor=none;fillColor=#3F8624;strokeColor=none;dashed=0;verticalLabelPosition=bottom;verticalAlign=top;align=center;html=1;fontSize=12;fontStyle=0;aspect=fixed;pointerEvents=1;shape=stencil(zZntjqMgFIavxp81cqgf/bnp7t6HaWlL1kqDdqt3v1o0K9idoZyTySaTjBzwgZfzVhAjvm8u5U1EkJTNTRzaiH+PAE6yE8fh/xC+mMh2a4p1eRUmIlU7lNuLrM9js/tVHmXbD5eNqBulTfOm1eqXeMhjO3FkfRFatqb2sWTzH1HybQiOf3x/UHU9DEequnnGfjr1J6XFWat7fbQq5upbOXa4qpirr+r3KLkz/fPcDKefimlcZJkJuR3bmMNdGw6zQR1M5Sze7tgU4wt6OnXI1u16cAbF7fLHI6pkvRBWxIyntjYviqsrj9NkZ0vLbVW5Iyh3xCwF8nen2RZlJ2sh8U1Njp6FRL6evb8T4aTJyVJAkixDvEFZmW9pNsdEnWOi3p6EHlby1nPwyWgq1YhPW9m/u/mZMqlm/P3JcxEsYP531AjvSSv1YbioSn0Wm+F6c6rKs0Ek5nY9dxCzSaju3UjzEOK2vvWFu7pN2clmo1Vbjg9Wq/mE9Rq2I54TE5IAAiMmBKiAgpgQoAIyYkKICrQfAO0HQPsB0H5gaD8wtB8Y2g8M7QeG9gND+4Gh/cDQflhvxv6XNcJ/efBe2WzptuyQFTahJgTsNVJqQsDmN6EmFGgVaAKgs0lAQGeTgIDOJgEBn000gaOzSUBAZ5OA4P2C/AVrxOLJ77FOzC9EiBWWADG/HCL2GgSIICEZNSJISEGNCBECeF8A3heA9wXgfQF4XwDeF4D3BeB9wfG+4HhfcLwvON4XL84Q/TBfcQI1H6t6LBuBR8LO+VvI0uscJFIg8AeJBIiQ7ZgjhAKBTyoFAp9UCgRBUgmOufFJpUDgk0qB8Erqx184+H6I/+OrI9+fZFW9uPV50+pL5jNqvso+A38A);" parent="1" vertex="1">
                    <mxGeometry x="267.5" y="547" width="78" height="78" as="geometry"/>
                </mxCell>
                <mxCell id="3eUnuSAXsB4PkMuB5CEK-65" value="" style="dashed=0;outlineConnect=0;html=1;align=center;labelPosition=center;verticalLabelPosition=bottom;verticalAlign=top;shape=mxgraph.weblogos.arduino;fillColor=#36868D;strokeColor=none;fontSize=18;" parent="1" vertex="1">
                    <mxGeometry x="284.38" y="575.5" width="44.24" height="21" as="geometry"/>
                </mxCell>
                <mxCell id="3eUnuSAXsB4PkMuB5CEK-68" value="" style="endArrow=classic;html=1;fontSize=14;fontColor=#000000;exitX=1;exitY=0.75;exitDx=0;exitDy=0;" parent="1" source="3eUnuSAXsB4PkMuB5CEK-44" target="3eUnuSAXsB4PkMuB5CEK-64" edge="1">
                    <mxGeometry width="50" height="50" relative="1" as="geometry">
                        <mxPoint x="277.5" y="555" as="sourcePoint"/>
                        <mxPoint x="327.5" y="505" as="targetPoint"/>
                        <Array as="points">
                            <mxPoint x="307.5" y="663"/>
                        </Array>
                    </mxGeometry>
                </mxCell>
                <mxCell id="3eUnuSAXsB4PkMuB5CEK-79" value="Excel Service" style="sketch=0;pointerEvents=1;shadow=0;dashed=0;html=1;strokeColor=none;fillColor=#505050;labelPosition=center;verticalLabelPosition=bottom;verticalAlign=top;outlineConnect=0;align=center;shape=mxgraph.office.services.excel_services;strokeWidth=3;fontSize=14;fontColor=#000000;" parent="1" vertex="1">
                    <mxGeometry x="166.52999999999997" y="1255" width="73.47" height="60" as="geometry"/>
                </mxCell>
                <mxCell id="3eUnuSAXsB4PkMuB5CEK-80" value="Data Stream&lt;br&gt;&amp;amp; Control" style="sketch=0;outlineConnect=0;fontColor=#232F3E;gradientColor=none;fillColor=#3F8624;strokeColor=none;dashed=0;verticalLabelPosition=bottom;verticalAlign=top;align=center;html=1;fontSize=12;fontStyle=0;aspect=fixed;pointerEvents=1;shape=mxgraph.aws4.iot_sitewise_data_streams;strokeWidth=3;" parent="1" vertex="1">
                    <mxGeometry x="164.26999999999998" y="1409" width="78" height="78" as="geometry"/>
                </mxCell>
                <mxCell id="3eUnuSAXsB4PkMuB5CEK-81" value="User" style="sketch=0;pointerEvents=1;shadow=0;dashed=0;html=1;strokeColor=none;labelPosition=center;verticalLabelPosition=bottom;verticalAlign=top;outlineConnect=0;align=center;shape=mxgraph.office.users.user;fillColor=#7FBA42;strokeWidth=3;fontSize=14;fontColor=#000000;" parent="1" vertex="1">
                    <mxGeometry x="30" y="1260" width="46" height="50" as="geometry"/>
                </mxCell>
                <mxCell id="3eUnuSAXsB4PkMuB5CEK-83" value="RX" style="sketch=0;outlineConnect=0;fontColor=#232F3E;gradientColor=none;fillColor=#3F8624;strokeColor=none;dashed=0;verticalLabelPosition=bottom;verticalAlign=top;align=center;html=1;fontSize=12;fontStyle=0;aspect=fixed;pointerEvents=1;shape=stencil(zZntjqMgFIavxp81cqgf/bnp7t6HaWlL1kqDdqt3v1o0K9idoZyTySaTjBzwgZfzVhAjvm8u5U1EkJTNTRzaiH+PAE6yE8fh/xC+mMh2a4p1eRUmIlU7lNuLrM9js/tVHmXbD5eNqBulTfOm1eqXeMhjO3FkfRFatqb2sWTzH1HybQiOf3x/UHU9DEequnnGfjr1J6XFWat7fbQq5upbOXa4qpirr+r3KLkz/fPcDKefimlcZJkJuR3bmMNdGw6zQR1M5Sze7tgU4wt6OnXI1u16cAbF7fLHI6pkvRBWxIyntjYviqsrj9NkZ0vLbVW5Iyh3xCwF8nen2RZlJ2sh8U1Njp6FRL6evb8T4aTJyVJAkixDvEFZmW9pNsdEnWOi3p6EHlby1nPwyWgq1YhPW9m/u/mZMqlm/P3JcxEsYP531AjvSSv1YbioSn0Wm+F6c6rKs0Ek5nY9dxCzSaju3UjzEOK2vvWFu7pN2clmo1Vbjg9Wq/mE9Rq2I54TE5IAAiMmBKiAgpgQoAIyYkKICrQfAO0HQPsB0H5gaD8wtB8Y2g8M7QeG9gND+4Gh/cDQflhvxv6XNcJ/efBe2WzptuyQFTahJgTsNVJqQsDmN6EmFGgVaAKgs0lAQGeTgIDOJgEBn000gaOzSUBAZ5OA4P2C/AVrxOLJ77FOzC9EiBWWADG/HCL2GgSIICEZNSJISEGNCBECeF8A3heA9wXgfQF4XwDeF4D3BeB9wfG+4HhfcLwvON4XL84Q/TBfcQI1H6t6LBuBR8LO+VvI0uscJFIg8AeJBIiQ7ZgjhAKBTyoFAp9UCgRBUgmOufFJpUDgk0qB8Erqx184+H6I/+OrI9+fZFW9uPV50+pL5jNqvso+A38A);" parent="1" vertex="1">
                    <mxGeometry x="14" y="1410.75" width="78" height="78" as="geometry"/>
                </mxCell>
                <mxCell id="3eUnuSAXsB4PkMuB5CEK-84" value="&lt;b&gt;&lt;font style=&quot;font-size: 18px;&quot;&gt;ESP&lt;br&gt;32&lt;/font&gt;&lt;/b&gt;" style="text;html=1;align=center;verticalAlign=middle;resizable=0;points=[];autosize=1;strokeColor=none;fillColor=none;" parent="1" vertex="1">
                    <mxGeometry x="23" y="1422.75" width="60" height="60" as="geometry"/>
                </mxCell>
                <mxCell id="3eUnuSAXsB4PkMuB5CEK-86" value="" style="endArrow=classic;startArrow=classic;html=1;fontSize=14;fontColor=#000000;" parent="1" source="3eUnuSAXsB4PkMuB5CEK-81" target="3eUnuSAXsB4PkMuB5CEK-79" edge="1">
                    <mxGeometry width="50" height="50" relative="1" as="geometry">
                        <mxPoint x="120" y="1402" as="sourcePoint"/>
                        <mxPoint x="170" y="1352" as="targetPoint"/>
                    </mxGeometry>
                </mxCell>
                <mxCell id="3eUnuSAXsB4PkMuB5CEK-87" value="" style="endArrow=classic;startArrow=classic;html=1;fontSize=14;fontColor=#000000;" parent="1" source="3eUnuSAXsB4PkMuB5CEK-79" target="3eUnuSAXsB4PkMuB5CEK-80" edge="1">
                    <mxGeometry width="50" height="50" relative="1" as="geometry">
                        <mxPoint x="86" y="1295" as="sourcePoint"/>
                        <mxPoint x="176.52999999999997" y="1295" as="targetPoint"/>
                        <Array as="points">
                            <mxPoint x="270" y="1282"/>
                            <mxPoint x="270" y="1452"/>
                        </Array>
                    </mxGeometry>
                </mxCell>
                <mxCell id="3eUnuSAXsB4PkMuB5CEK-88" value="" style="endArrow=classic;startArrow=classic;html=1;fontSize=14;fontColor=#000000;" parent="1" source="3eUnuSAXsB4PkMuB5CEK-83" target="3eUnuSAXsB4PkMuB5CEK-80" edge="1">
                    <mxGeometry width="50" height="50" relative="1" as="geometry">
                        <mxPoint x="76" y="1392" as="sourcePoint"/>
                        <mxPoint x="166.52999999999997" y="1392" as="targetPoint"/>
                    </mxGeometry>
                </mxCell>
            </root>
        </mxGraphModel>
    </diagram>
    <diagram id="d4TEu4DKzvd3paIMseok" name="SKETCH 2">
        <mxGraphModel dx="1284" dy="572" grid="1" gridSize="10" guides="1" tooltips="1" connect="1" arrows="1" fold="1" page="1" pageScale="1" pageWidth="583" pageHeight="827" math="0" shadow="0">
            <root>
                <mxCell id="0"/>
                <mxCell id="1" parent="0"/>
                <mxCell id="z4cIpgbrBQPwc23JxlMx-1" value="" style="rounded=1;whiteSpace=wrap;html=1;strokeColor=#666666;fontSize=14;fontColor=#333333;fillColor=#f5f5f5;arcSize=3;" parent="1" vertex="1">
                    <mxGeometry x="10" y="60" width="380" height="290" as="geometry"/>
                </mxCell>
                <mxCell id="lyoO5PVwQKoMnU5_6n04-1" value="&lt;div style=&quot;text-align: left;&quot;&gt;&lt;b style=&quot;background-color: initial;&quot;&gt;&lt;font style=&quot;font-size: 14px;&quot;&gt;SKETCH 2 -&lt;/font&gt;&lt;/b&gt;&lt;/div&gt;&lt;font size=&quot;3&quot;&gt;&lt;b&gt;Ruang Simulasi Iklim - tampak atas&lt;/b&gt;&lt;/font&gt;" style="text;html=1;align=center;verticalAlign=middle;resizable=0;points=[];autosize=1;strokeColor=none;fillColor=none;fontSize=12;" parent="1" vertex="1">
                    <mxGeometry x="10" y="10" width="290" height="50" as="geometry"/>
                </mxCell>
                <mxCell id="z4cIpgbrBQPwc23JxlMx-2" value="" style="verticalLabelPosition=bottom;html=1;verticalAlign=top;align=center;shape=mxgraph.floorplan.desk_corner;rotation=-225;" parent="1" vertex="1">
                    <mxGeometry x="75" y="127.93" width="140" height="140" as="geometry"/>
                </mxCell>
                <mxCell id="z4cIpgbrBQPwc23JxlMx-3" value="Meja" style="text;html=1;align=center;verticalAlign=middle;resizable=0;points=[];autosize=1;strokeColor=none;fillColor=none;" parent="1" vertex="1">
                    <mxGeometry x="165" y="182.93" width="50" height="30" as="geometry"/>
                </mxCell>
                <mxCell id="z4cIpgbrBQPwc23JxlMx-4" value="Kursi" style="text;html=1;align=center;verticalAlign=middle;resizable=0;points=[];autosize=1;strokeColor=none;fillColor=none;" parent="1" vertex="1">
                    <mxGeometry x="100" y="182.93" width="50" height="30" as="geometry"/>
                </mxCell>
                <mxCell id="t-jM2JUOru4o7FZlAKpN-1" value="L" style="verticalLabelPosition=bottom;shadow=0;dashed=0;align=center;html=1;verticalAlign=top;shape=mxgraph.electrical.radio.microphone_2;fontSize=14;" parent="1" vertex="1">
                    <mxGeometry x="340" y="70" width="42" height="70" as="geometry"/>
                </mxCell>
                <mxCell id="t-jM2JUOru4o7FZlAKpN-2" value="sound" style="text;html=1;align=center;verticalAlign=middle;resizable=0;points=[];autosize=1;strokeColor=none;fillColor=none;" parent="1" vertex="1">
                    <mxGeometry x="280" y="90" width="60" height="30" as="geometry"/>
                </mxCell>
                <mxCell id="t-jM2JUOru4o7FZlAKpN-3" value="R" style="verticalLabelPosition=bottom;shadow=0;dashed=0;align=center;html=1;verticalAlign=top;shape=mxgraph.electrical.radio.microphone_2;fontSize=14;" parent="1" vertex="1">
                    <mxGeometry x="340" y="240" width="42" height="70" as="geometry"/>
                </mxCell>
                <mxCell id="t-jM2JUOru4o7FZlAKpN-4" value="sound" style="text;html=1;align=center;verticalAlign=middle;resizable=0;points=[];autosize=1;strokeColor=none;fillColor=none;" parent="1" vertex="1">
                    <mxGeometry x="280" y="260" width="60" height="30" as="geometry"/>
                </mxCell>
                <mxCell id="26TLjFCANw0kIFghni6v-1" value="Sensor" style="sketch=0;outlineConnect=0;fontColor=#232F3E;gradientColor=none;strokeColor=#232F3E;fillColor=#ffffff;dashed=0;verticalLabelPosition=bottom;verticalAlign=top;align=center;html=1;fontSize=12;fontStyle=0;aspect=fixed;shape=mxgraph.aws4.resourceIcon;resIcon=mxgraph.aws4.sensor;" parent="1" vertex="1">
                    <mxGeometry x="250" y="167.93" width="60" height="60" as="geometry"/>
                </mxCell>
                <mxCell id="26TLjFCANw0kIFghni6v-2" value="" style="rounded=1;whiteSpace=wrap;html=1;strokeColor=#666666;fontSize=14;fontColor=#333333;fillColor=#f5f5f5;arcSize=3;" parent="1" vertex="1">
                    <mxGeometry x="10" y="420" width="380" height="290" as="geometry"/>
                </mxCell>
                <mxCell id="26TLjFCANw0kIFghni6v-3" value="&lt;div style=&quot;text-align: left;&quot;&gt;&lt;b style=&quot;background-color: initial;&quot;&gt;&lt;font style=&quot;font-size: 14px;&quot;&gt;SKETCH 2 -&lt;/font&gt;&lt;/b&gt;&lt;/div&gt;&lt;font size=&quot;3&quot;&gt;&lt;b&gt;Ruang Simulasi Iklim - tampak bawah&lt;/b&gt;&lt;/font&gt;" style="text;html=1;align=center;verticalAlign=middle;resizable=0;points=[];autosize=1;strokeColor=none;fillColor=none;fontSize=12;" parent="1" vertex="1">
                    <mxGeometry y="370" width="310" height="50" as="geometry"/>
                </mxCell>
                <mxCell id="P62QNIJbHD-2vuvlR9uK-1" value="&lt;font color=&quot;#008a00&quot;&gt;Lampu&lt;/font&gt;" style="sketch=0;outlineConnect=0;fillColor=#008a00;strokeColor=#005700;dashed=0;verticalLabelPosition=bottom;verticalAlign=top;align=center;html=1;fontSize=12;fontStyle=0;aspect=fixed;pointerEvents=1;shape=mxgraph.aws4.lightbulb;fontColor=#ffffff;" parent="1" vertex="1">
                    <mxGeometry x="102" y="466" width="78" height="78" as="geometry"/>
                </mxCell>
                <mxCell id="P62QNIJbHD-2vuvlR9uK-2" value="&lt;font color=&quot;#008a00&quot;&gt;Lampu&lt;/font&gt;" style="sketch=0;outlineConnect=0;fillColor=#008a00;strokeColor=#005700;dashed=0;verticalLabelPosition=bottom;verticalAlign=top;align=center;html=1;fontSize=12;fontStyle=0;aspect=fixed;pointerEvents=1;shape=mxgraph.aws4.lightbulb;fontColor=#ffffff;" parent="1" vertex="1">
                    <mxGeometry x="200" y="466" width="78" height="78" as="geometry"/>
                </mxCell>
                <mxCell id="P62QNIJbHD-2vuvlR9uK-3" value="&lt;font color=&quot;#008a00&quot;&gt;Lampu&lt;/font&gt;" style="sketch=0;outlineConnect=0;fillColor=#008a00;strokeColor=#005700;dashed=0;verticalLabelPosition=bottom;verticalAlign=top;align=center;html=1;fontSize=12;fontStyle=0;aspect=fixed;pointerEvents=1;shape=mxgraph.aws4.lightbulb;fontColor=#ffffff;" parent="1" vertex="1">
                    <mxGeometry x="200" y="586" width="78" height="78" as="geometry"/>
                </mxCell>
                <mxCell id="P62QNIJbHD-2vuvlR9uK-4" value="&lt;font color=&quot;#008a00&quot;&gt;Lampu&lt;/font&gt;" style="sketch=0;outlineConnect=0;fillColor=#008a00;strokeColor=#005700;dashed=0;verticalLabelPosition=bottom;verticalAlign=top;align=center;html=1;fontSize=12;fontStyle=0;aspect=fixed;pointerEvents=1;shape=mxgraph.aws4.lightbulb;fontColor=#ffffff;" parent="1" vertex="1">
                    <mxGeometry x="102" y="586" width="78" height="78" as="geometry"/>
                </mxCell>
                <mxCell id="T1X2ATsPU9dGLnOx4wWq-1" value="&lt;font color=&quot;#000000&quot;&gt;Simulasi&lt;br&gt;Kelembapan&lt;/font&gt;" style="verticalLabelPosition=bottom;html=1;verticalAlign=top;align=center;shape=mxgraph.floorplan.water_cooler;fontColor=#008a00;strokeColor=#000000;" parent="1" vertex="1">
                    <mxGeometry x="200" y="260" width="50" height="50" as="geometry"/>
                </mxCell>
                <mxCell id="NOMvK0TaVYoYep0ShjR4-1" value="&lt;div style=&quot;text-align: left;&quot;&gt;&lt;b style=&quot;background-color: initial;&quot;&gt;&lt;font style=&quot;font-size: 14px;&quot;&gt;SKETCH 2 -&lt;/font&gt;&lt;/b&gt;&lt;/div&gt;&lt;font size=&quot;3&quot;&gt;&lt;b&gt;Modul Alat&lt;/b&gt;&lt;/font&gt;" style="text;html=1;align=center;verticalAlign=middle;resizable=0;points=[];autosize=1;strokeColor=none;fillColor=none;fontSize=12;" parent="1" vertex="1">
                    <mxGeometry x="10" y="750" width="100" height="50" as="geometry"/>
                </mxCell>
                <mxCell id="PNgDHTWmtvGtXl7xdE6u-2" value="&lt;div style=&quot;text-align: left;&quot;&gt;&lt;b style=&quot;background-color: initial;&quot;&gt;&lt;font style=&quot;font-size: 14px;&quot;&gt;SKETCH 2 -&lt;/font&gt;&lt;/b&gt;&lt;/div&gt;&lt;font size=&quot;3&quot;&gt;&lt;b&gt;Data Stream&lt;/b&gt;&lt;/font&gt;" style="text;html=1;align=center;verticalAlign=middle;resizable=0;points=[];autosize=1;strokeColor=none;fillColor=none;fontSize=12;" parent="1" vertex="1">
                    <mxGeometry x="20" y="860" width="120" height="50" as="geometry"/>
                </mxCell>
                <mxCell id="0j98wQ7J88eProChk8j5-1" value="&lt;div style=&quot;text-align: left;&quot;&gt;&lt;b style=&quot;background-color: initial;&quot;&gt;&lt;font style=&quot;font-size: 14px;&quot;&gt;SKETCH 2 -&lt;/font&gt;&lt;/b&gt;&lt;/div&gt;&lt;font size=&quot;3&quot;&gt;&lt;b&gt;Data Control&lt;/b&gt;&lt;/font&gt;" style="text;html=1;align=center;verticalAlign=middle;resizable=0;points=[];autosize=1;strokeColor=none;fillColor=none;fontSize=12;" parent="1" vertex="1">
                    <mxGeometry x="20" y="1070" width="120" height="50" as="geometry"/>
                </mxCell>
                <mxCell id="0j98wQ7J88eProChk8j5-2" value="CSV" style="sketch=0;outlineConnect=0;fontColor=#232F3E;gradientColor=none;fillColor=#3F8624;strokeColor=none;dashed=0;verticalLabelPosition=bottom;verticalAlign=top;align=center;html=1;fontSize=12;fontStyle=0;aspect=fixed;pointerEvents=1;shape=mxgraph.aws4.iot_greengrass_stream_manager;" parent="1" vertex="1">
                    <mxGeometry x="180" y="919" width="78" height="60" as="geometry"/>
                </mxCell>
                <mxCell id="lLR7S7S0J8k_PQv28V7k-3" value="" style="group" parent="1" vertex="1" connectable="0">
                    <mxGeometry x="20" y="910" width="78" height="78" as="geometry"/>
                </mxCell>
                <mxCell id="lLR7S7S0J8k_PQv28V7k-1" value="RX" style="sketch=0;outlineConnect=0;fontColor=#232F3E;gradientColor=none;fillColor=#3F8624;strokeColor=none;dashed=0;verticalLabelPosition=bottom;verticalAlign=top;align=center;html=1;fontSize=12;fontStyle=0;aspect=fixed;pointerEvents=1;shape=stencil(zZntjqMgFIavxp81cqgf/bnp7t6HaWlL1kqDdqt3v1o0K9idoZyTySaTjBzwgZfzVhAjvm8u5U1EkJTNTRzaiH+PAE6yE8fh/xC+mMh2a4p1eRUmIlU7lNuLrM9js/tVHmXbD5eNqBulTfOm1eqXeMhjO3FkfRFatqb2sWTzH1HybQiOf3x/UHU9DEequnnGfjr1J6XFWat7fbQq5upbOXa4qpirr+r3KLkz/fPcDKefimlcZJkJuR3bmMNdGw6zQR1M5Sze7tgU4wt6OnXI1u16cAbF7fLHI6pkvRBWxIyntjYviqsrj9NkZ0vLbVW5Iyh3xCwF8nen2RZlJ2sh8U1Njp6FRL6evb8T4aTJyVJAkixDvEFZmW9pNsdEnWOi3p6EHlby1nPwyWgq1YhPW9m/u/mZMqlm/P3JcxEsYP531AjvSSv1YbioSn0Wm+F6c6rKs0Ek5nY9dxCzSaju3UjzEOK2vvWFu7pN2clmo1Vbjg9Wq/mE9Rq2I54TE5IAAiMmBKiAgpgQoAIyYkKICrQfAO0HQPsB0H5gaD8wtB8Y2g8M7QeG9gND+4Gh/cDQflhvxv6XNcJ/efBe2WzptuyQFTahJgTsNVJqQsDmN6EmFGgVaAKgs0lAQGeTgIDOJgEBn000gaOzSUBAZ5OA4P2C/AVrxOLJ77FOzC9EiBWWADG/HCL2GgSIICEZNSJISEGNCBECeF8A3heA9wXgfQF4XwDeF4D3BeB9wfG+4HhfcLwvON4XL84Q/TBfcQI1H6t6LBuBR8LO+VvI0uscJFIg8AeJBIiQ7ZgjhAKBTyoFAp9UCgRBUgmOufFJpUDgk0qB8Erqx184+H6I/+OrI9+fZFW9uPV50+pL5jNqvso+A38A);" parent="lLR7S7S0J8k_PQv28V7k-3" vertex="1">
                    <mxGeometry width="78" height="78" as="geometry"/>
                </mxCell>
                <mxCell id="lLR7S7S0J8k_PQv28V7k-2" value="&lt;b&gt;&lt;font style=&quot;font-size: 18px;&quot;&gt;ESP&lt;br&gt;32&lt;/font&gt;&lt;/b&gt;" style="text;html=1;align=center;verticalAlign=middle;resizable=0;points=[];autosize=1;strokeColor=none;fillColor=none;" parent="lLR7S7S0J8k_PQv28V7k-3" vertex="1">
                    <mxGeometry x="9" y="12" width="60" height="60" as="geometry"/>
                </mxCell>
                <mxCell id="Ou06hlh5ogy1LL4Vf3j3-1" value="Excel Service" style="sketch=0;pointerEvents=1;shadow=0;dashed=0;html=1;strokeColor=none;fillColor=#505050;labelPosition=center;verticalLabelPosition=bottom;verticalAlign=top;outlineConnect=0;align=center;shape=mxgraph.office.services.excel_services;strokeWidth=3;fontSize=14;fontColor=#000000;" parent="1" vertex="1">
                    <mxGeometry x="350" y="919" width="73.47" height="60" as="geometry"/>
                </mxCell>
                <mxCell id="ScmkwAMKEl2-MF-nR8Yz-1" value="" style="endArrow=classic;html=1;strokeWidth=2;" parent="1" source="lLR7S7S0J8k_PQv28V7k-1" target="0j98wQ7J88eProChk8j5-2" edge="1">
                    <mxGeometry width="50" height="50" relative="1" as="geometry">
                        <mxPoint x="170" y="1070" as="sourcePoint"/>
                        <mxPoint x="220" y="1020" as="targetPoint"/>
                    </mxGeometry>
                </mxCell>
                <mxCell id="ScmkwAMKEl2-MF-nR8Yz-2" value="" style="endArrow=classic;html=1;strokeWidth=2;" parent="1" source="0j98wQ7J88eProChk8j5-2" target="Ou06hlh5ogy1LL4Vf3j3-1" edge="1">
                    <mxGeometry width="50" height="50" relative="1" as="geometry">
                        <mxPoint x="108" y="959" as="sourcePoint"/>
                        <mxPoint x="190.17647058823536" y="959" as="targetPoint"/>
                    </mxGeometry>
                </mxCell>
                <mxCell id="ScmkwAMKEl2-MF-nR8Yz-3" value="CSV" style="sketch=0;outlineConnect=0;fontColor=#232F3E;gradientColor=none;fillColor=#3F8624;strokeColor=none;dashed=0;verticalLabelPosition=bottom;verticalAlign=top;align=center;html=1;fontSize=12;fontStyle=0;aspect=fixed;pointerEvents=1;shape=mxgraph.aws4.iot_greengrass_stream_manager;rotation=0;direction=west;" parent="1" vertex="1">
                    <mxGeometry x="190" y="1129" width="78" height="60" as="geometry"/>
                </mxCell>
                <mxCell id="ScmkwAMKEl2-MF-nR8Yz-4" value="" style="group" parent="1" vertex="1" connectable="0">
                    <mxGeometry x="30" y="1120" width="78" height="78" as="geometry"/>
                </mxCell>
                <mxCell id="ScmkwAMKEl2-MF-nR8Yz-5" value="RX" style="sketch=0;outlineConnect=0;fontColor=#232F3E;gradientColor=none;fillColor=#3F8624;strokeColor=none;dashed=0;verticalLabelPosition=bottom;verticalAlign=top;align=center;html=1;fontSize=12;fontStyle=0;aspect=fixed;pointerEvents=1;shape=stencil(zZntjqMgFIavxp81cqgf/bnp7t6HaWlL1kqDdqt3v1o0K9idoZyTySaTjBzwgZfzVhAjvm8u5U1EkJTNTRzaiH+PAE6yE8fh/xC+mMh2a4p1eRUmIlU7lNuLrM9js/tVHmXbD5eNqBulTfOm1eqXeMhjO3FkfRFatqb2sWTzH1HybQiOf3x/UHU9DEequnnGfjr1J6XFWat7fbQq5upbOXa4qpirr+r3KLkz/fPcDKefimlcZJkJuR3bmMNdGw6zQR1M5Sze7tgU4wt6OnXI1u16cAbF7fLHI6pkvRBWxIyntjYviqsrj9NkZ0vLbVW5Iyh3xCwF8nen2RZlJ2sh8U1Njp6FRL6evb8T4aTJyVJAkixDvEFZmW9pNsdEnWOi3p6EHlby1nPwyWgq1YhPW9m/u/mZMqlm/P3JcxEsYP531AjvSSv1YbioSn0Wm+F6c6rKs0Ek5nY9dxCzSaju3UjzEOK2vvWFu7pN2clmo1Vbjg9Wq/mE9Rq2I54TE5IAAiMmBKiAgpgQoAIyYkKICrQfAO0HQPsB0H5gaD8wtB8Y2g8M7QeG9gND+4Gh/cDQflhvxv6XNcJ/efBe2WzptuyQFTahJgTsNVJqQsDmN6EmFGgVaAKgs0lAQGeTgIDOJgEBn000gaOzSUBAZ5OA4P2C/AVrxOLJ77FOzC9EiBWWADG/HCL2GgSIICEZNSJISEGNCBECeF8A3heA9wXgfQF4XwDeF4D3BeB9wfG+4HhfcLwvON4XL84Q/TBfcQI1H6t6LBuBR8LO+VvI0uscJFIg8AeJBIiQ7ZgjhAKBTyoFAp9UCgRBUgmOufFJpUDgk0qB8Erqx184+H6I/+OrI9+fZFW9uPV50+pL5jNqvso+A38A);" parent="ScmkwAMKEl2-MF-nR8Yz-4" vertex="1">
                    <mxGeometry width="78" height="78" as="geometry"/>
                </mxCell>
                <mxCell id="ScmkwAMKEl2-MF-nR8Yz-6" value="&lt;b&gt;&lt;font style=&quot;font-size: 18px;&quot;&gt;ESP&lt;br&gt;32&lt;/font&gt;&lt;/b&gt;" style="text;html=1;align=center;verticalAlign=middle;resizable=0;points=[];autosize=1;strokeColor=none;fillColor=none;" parent="ScmkwAMKEl2-MF-nR8Yz-4" vertex="1">
                    <mxGeometry x="9" y="12" width="60" height="60" as="geometry"/>
                </mxCell>
                <mxCell id="ScmkwAMKEl2-MF-nR8Yz-7" value="Excel Service" style="sketch=0;pointerEvents=1;shadow=0;dashed=0;html=1;strokeColor=none;fillColor=#505050;labelPosition=center;verticalLabelPosition=bottom;verticalAlign=top;outlineConnect=0;align=center;shape=mxgraph.office.services.excel_services;strokeWidth=3;fontSize=14;fontColor=#000000;" parent="1" vertex="1">
                    <mxGeometry x="360" y="1129" width="73.47" height="60" as="geometry"/>
                </mxCell>
                <mxCell id="ScmkwAMKEl2-MF-nR8Yz-8" value="" style="endArrow=classic;html=1;strokeWidth=2;" parent="1" source="ScmkwAMKEl2-MF-nR8Yz-3" target="ScmkwAMKEl2-MF-nR8Yz-5" edge="1">
                    <mxGeometry width="50" height="50" relative="1" as="geometry">
                        <mxPoint x="108.00000000000011" y="959.0000000000002" as="sourcePoint"/>
                        <mxPoint x="190.17647058823525" y="959.0000000000002" as="targetPoint"/>
                    </mxGeometry>
                </mxCell>
                <mxCell id="ScmkwAMKEl2-MF-nR8Yz-9" value="" style="endArrow=classic;html=1;strokeWidth=2;" parent="1" source="ScmkwAMKEl2-MF-nR8Yz-7" target="ScmkwAMKEl2-MF-nR8Yz-3" edge="1">
                    <mxGeometry width="50" height="50" relative="1" as="geometry">
                        <mxPoint x="267.8235294117645" y="959.0000000000002" as="sourcePoint"/>
                        <mxPoint x="359.9999999999999" y="959.0000000000002" as="targetPoint"/>
                    </mxGeometry>
                </mxCell>
            </root>
        </mxGraphModel>
    </diagram>
</mxfile>